<svg id="Camada_1" data-name="Camada 1" xmlns="http://www.w3.org/2000/svg" xmlns:xlink="http://www.w3.org/1999/xlink" viewBox="0 0 301.93 500"><defs><style>.cls-1{fill:url(#Gradiente_sem_nome_52);}.cls-2{fill:url(#Gradiente_sem_nome_49);}</style><linearGradient id="Gradiente_sem_nome_52" y1="250" x2="116.19" y2="250" gradientUnits="userSpaceOnUse"><stop offset="0" stop-color="#cf362e"/><stop offset="1" stop-color="#ed1c24"/></linearGradient><linearGradient id="Gradiente_sem_nome_49" x1="185.74" y1="250" x2="301.93" y2="250" gradientUnits="userSpaceOnUse"><stop offset="0" stop-color="#ed1c24"/><stop offset="1" stop-color="#cf362e"/></linearGradient></defs><path class="cls-1" d="M116.19,57.43q0,26.78-17.3,42.11a59.52,59.52,0,0,1-40.8,15.34,59.54,59.54,0,0,1-40.8-15.34Q0,84.21,0,57.43T17.29,15.34A59.54,59.54,0,0,1,58.09,0a59.52,59.52,0,0,1,40.8,15.34Q116.19,30.67,116.19,57.43ZM69.87,500H47A37.17,37.17,0,0,1,9.79,462.82v-269A37.17,37.17,0,0,1,47,156.66H69.87A37.17,37.17,0,0,1,107,193.83v269A37.17,37.17,0,0,1,69.87,500Z"/><path class="cls-2" d="M301.93,57.43q0,26.78-17.3,42.11a61.93,61.93,0,0,1-81.6,0q-17.29-15.33-17.29-42.11T203,15.34a61.93,61.93,0,0,1,81.6,0Q301.93,30.67,301.93,57.43ZM255.61,500H232.7a37.17,37.17,0,0,1-37.17-37.18v-269a37.17,37.17,0,0,1,37.17-37.17h22.91a37.17,37.17,0,0,1,37.17,37.17v269A37.17,37.17,0,0,1,255.61,500Z"/></svg>