<svg id="Camada_1" data-name="Camada 1" xmlns="http://www.w3.org/2000/svg" xmlns:xlink="http://www.w3.org/1999/xlink" viewBox="0 0 500 500"><defs><style>.cls-1{fill:url(#Gradiente_sem_nome_52);}.cls-2{fill:url(#Gradiente_sem_nome_49);}</style><linearGradient id="Gradiente_sem_nome_52" x1="99.04" y1="250" x2="215.23" y2="250" gradientUnits="userSpaceOnUse"><stop offset="0" stop-color="#cf362e"/><stop offset="1" stop-color="#ed1c24"/></linearGradient><linearGradient id="Gradiente_sem_nome_49" x1="284.77" y1="250" x2="400.96" y2="250" gradientUnits="userSpaceOnUse"><stop offset="0" stop-color="#ed1c24"/><stop offset="1" stop-color="#cf362e"/></linearGradient></defs><path class="cls-1" d="M215.23,57.43q0,26.78-17.31,42.11a59.5,59.5,0,0,1-40.8,15.34,59.51,59.51,0,0,1-40.79-15.34Q99,84.21,99,57.43t17.29-42.09A59.51,59.51,0,0,1,157.12,0a59.5,59.5,0,0,1,40.8,15.34Q215.21,30.67,215.23,57.43ZM168.9,500H146a37.18,37.18,0,0,1-37.18-37.18v-269A37.18,37.18,0,0,1,146,156.66h22.9a37.17,37.17,0,0,1,37.18,37.17v269A37.17,37.17,0,0,1,168.9,500Z"/><path class="cls-2" d="M401,57.43q0,26.78-17.3,42.11a61.93,61.93,0,0,1-81.6,0q-17.3-15.33-17.29-42.11t17.29-42.09a61.93,61.93,0,0,1,81.6,0Q401,30.67,401,57.43ZM354.64,500h-22.9a37.18,37.18,0,0,1-37.18-37.18v-269a37.18,37.18,0,0,1,37.18-37.17h22.9a37.18,37.18,0,0,1,37.18,37.17v269A37.18,37.18,0,0,1,354.64,500Z"/></svg>