<svg id="Camada_1" data-name="Camada 1" xmlns="http://www.w3.org/2000/svg" xmlns:xlink="http://www.w3.org/1999/xlink" viewBox="0 0 500 343.67"><defs><style>.cls-1{fill:url(#Gradiente_sem_nome_38);}.cls-2{fill:#492568;}</style><linearGradient id="Gradiente_sem_nome_38" x1="-6.11" y1="91.99" x2="506.87" y2="182.44" gradientUnits="userSpaceOnUse"><stop offset="0" stop-color="#fff"/><stop offset="1" stop-color="#d1d1d1"/></linearGradient></defs><path class="cls-1" d="M365.55,0A136.4,136.4,0,0,0,281.72,26.6a53.28,53.28,0,0,1-63.44,0A136.4,136.4,0,0,0,134.45,0C59.29,1.47-1.34,64.51,0,139.67A137.13,137.13,0,0,0,218.52,247.5a52.83,52.83,0,0,1,63,0A137.13,137.13,0,0,0,500,139.67C501.34,64.51,440.71,1.47,365.55,0Z"/><path d="M83.85,287.72q9.8,0,15,3.44t5.24,11.27q0,7.9-5.3,11.4t-15.16,3.51H80.57v11.05A3.6,3.6,0,0,1,77,332H74.31a3.6,3.6,0,0,1-3.59-3.6V291.92a3.6,3.6,0,0,1,3.12-3.58c1.2-.15,2.43-.28,3.7-.37Q81.14,287.72,83.85,287.72Zm.63,8.4c-.71,0-1.42,0-2.11.06s-1.3.09-1.8.13v12.63h3.09q5.11,0,7.71-1.39c1.72-.93,2.59-2.65,2.59-5.18a6.12,6.12,0,0,0-.67-3,5.07,5.07,0,0,0-1.89-1.93,8.61,8.61,0,0,0-3-1A24.82,24.82,0,0,0,84.48,296.12Z"/><path d="M124.56,329.43a3.63,3.63,0,0,1-4,3,17.72,17.72,0,0,1-3.18-.66,9.93,9.93,0,0,1-4-2.31,7.66,7.66,0,0,1-2-3.6,19.32,19.32,0,0,1-.54-4.77v-33.5a3.61,3.61,0,0,1,3-3.55l2.21-.36a3.6,3.6,0,0,1,4.17,3.55v32a12.92,12.92,0,0,0,.19,2.27,4,4,0,0,0,.73,1.71,3.81,3.81,0,0,0,1.55,1.13,8.21,8.21,0,0,0,2.71.57Z"/><path d="M143.59,297.89a21.86,21.86,0,0,1,6.95.94,10.91,10.91,0,0,1,4.45,2.72,9.92,9.92,0,0,1,2.37,4.29,21.36,21.36,0,0,1,.69,5.62v16.62a3.59,3.59,0,0,1-2.93,3.54l-2.69.46a53.94,53.94,0,0,1-8.71.6,27.47,27.47,0,0,1-5.84-.57,12.38,12.38,0,0,1-4.52-1.86,8.49,8.49,0,0,1-2.9-3.38,11.55,11.55,0,0,1-1-5.11,9.7,9.7,0,0,1,1.17-4.93,8.92,8.92,0,0,1,3.12-3.22,14.21,14.21,0,0,1,4.49-1.74,25.65,25.65,0,0,1,5.24-.53,28.58,28.58,0,0,1,3.25.16,13.63,13.63,0,0,1,2.3.41V311a5.2,5.2,0,0,0-1.45-3.85q-1.45-1.46-5-1.45a32.45,32.45,0,0,0-4.74.34l-.49.08a3.58,3.58,0,0,1-4.16-3l-.59-3.7c.55-.17,1.23-.35,2.05-.54s1.72-.36,2.69-.51,2-.27,3.06-.38S142.5,297.89,143.59,297.89Zm.76,27.53c.93,0,1.81,0,2.65-.06a18.87,18.87,0,0,0,2-.19V318c-.38-.08-.94-.17-1.7-.25a20.16,20.16,0,0,0-2.09-.13,19.54,19.54,0,0,0-2.49.16,6.75,6.75,0,0,0-2.05.6,3.56,3.56,0,0,0-1.39,1.2,3.33,3.33,0,0,0-.51,1.89,3.24,3.24,0,0,0,1.49,3.07A8.16,8.16,0,0,0,144.35,325.42Z"/><path d="M190.46,298.77a3.6,3.6,0,0,1,3.44,4.65q-2.21,7-4.54,13.35-3.11,8.4-6.77,16.29a36.1,36.1,0,0,1-2.66,4.83,14.69,14.69,0,0,1-2.91,3.29,10.22,10.22,0,0,1-3.57,1.89,16.2,16.2,0,0,1-4.65.6,19.25,19.25,0,0,1-4.08-.41,18.89,18.89,0,0,1-3.07-.91l1.65-7.52a15.06,15.06,0,0,0,2.59.69,14.15,14.15,0,0,0,2.4.19,5.26,5.26,0,0,0,3.88-1.35,9.1,9.1,0,0,0,1.47-2,3.55,3.55,0,0,0,.07-3.32q-2.85-5.71-5.68-12.64-2.42-5.93-4.64-12.94a3.61,3.61,0,0,1,3.43-4.71h2.37a3.57,3.57,0,0,1,3.46,2.62c.25.87.51,1.78.79,2.72q.85,2.86,1.81,5.81c.63,1.95,1.28,3.86,1.93,5.71s1.28,3.54,1.87,5.05c.55-1.51,1.12-3.2,1.71-5.05s1.18-3.76,1.75-5.71,1.12-3.9,1.65-5.81c.25-.93.49-1.82.73-2.68a3.58,3.58,0,0,1,3.47-2.66Z"/><path d="M214.11,329.43a3.63,3.63,0,0,1-4,3,17.72,17.72,0,0,1-3.18-.66,9.93,9.93,0,0,1-4-2.31,7.66,7.66,0,0,1-2-3.6,19.32,19.32,0,0,1-.54-4.77v-33.5a3.6,3.6,0,0,1,3-3.55l2.21-.36a3.6,3.6,0,0,1,4.17,3.55v32a12.92,12.92,0,0,0,.19,2.27,4,4,0,0,0,.73,1.71,3.81,3.81,0,0,0,1.55,1.13,8.15,8.15,0,0,0,2.71.57Z"/><path d="M230.55,289.17a5.15,5.15,0,0,1-1.67,4.07,6,6,0,0,1-7.9,0,5.79,5.79,0,0,1,0-8.14,6,6,0,0,1,7.9,0A5.18,5.18,0,0,1,230.55,289.17ZM226.07,332h-2.22a3.6,3.6,0,0,1-3.59-3.6v-26a3.6,3.6,0,0,1,3.59-3.6h2.22a3.6,3.6,0,0,1,3.6,3.6v26A3.6,3.6,0,0,1,226.07,332Z"/><path d="M248,325.23a9.59,9.59,0,0,0,3.67-.5,2,2,0,0,0,1.07-2,2.39,2.39,0,0,0-1.39-2,26.93,26.93,0,0,0-4.23-1.93,41.72,41.72,0,0,1-4-1.7,11.78,11.78,0,0,1-3.06-2.12,8.43,8.43,0,0,1-2-2.93,10.77,10.77,0,0,1-.7-4.11,8.88,8.88,0,0,1,3.48-7.39q3.47-2.72,9.53-2.71a31.23,31.23,0,0,1,5.81.53l.92.19a3.6,3.6,0,0,1,2.76,4.31l-.08.33a3.58,3.58,0,0,1-4.35,2.67h0a19,19,0,0,0-4.32-.45c-2.95,0-4.42.83-4.42,2.47a2.49,2.49,0,0,0,.19,1,2.15,2.15,0,0,0,.75.85,11.57,11.57,0,0,0,1.55.89c.65.32,1.49.67,2.5,1.05a38.45,38.45,0,0,1,5.11,2.26,12.13,12.13,0,0,1,3.19,2.4,7.41,7.41,0,0,1,1.64,2.87,12.59,12.59,0,0,1,.48,3.66,8.43,8.43,0,0,1-3.7,7.43q-3.69,2.52-10.45,2.52a29.81,29.81,0,0,1-7.36-.76c-.29-.07-.57-.14-.83-.22a3.59,3.59,0,0,1-2.59-4.2l.12-.56a3.57,3.57,0,0,1,4.36-2.76c.46.12.91.23,1.37.32A23.88,23.88,0,0,0,248,325.23Z"/><path d="M302.23,291.82V293a3.6,3.6,0,0,1-3.6,3.59h-6a3.6,3.6,0,0,0-3.59,3.6v28.17a3.6,3.6,0,0,1-3.6,3.6h-2.66a3.6,3.6,0,0,1-3.59-3.6V300.22a3.6,3.6,0,0,0-3.6-3.6h-6A3.59,3.59,0,0,1,266,293v-1.21a3.6,3.6,0,0,1,3.59-3.6h29.06A3.6,3.6,0,0,1,302.23,291.82Z"/><path d="M323.41,312.92q-1.26,4.8-2.68,9.53c-.7,2.34-1.43,4.68-2.19,7a3.6,3.6,0,0,1-3.43,2.5h-2.3a3.56,3.56,0,0,1-3.33-2.25c-.49-1.23-1-2.59-1.54-4.07q-1.33-3.66-2.76-8t-2.91-9.15q-.79-2.56-1.56-5.16a3.6,3.6,0,0,1,3.46-4.6h2.25a3.6,3.6,0,0,1,3.51,2.8q.22,1.05.48,2.16c.4,1.79.83,3.63,1.27,5.52s.91,3.8,1.4,5.72,1,3.76,1.49,5.52q.82-2.78,1.61-5.68c.53-1.93,1-3.84,1.52-5.71s.95-3.69,1.39-5.44c.19-.74.36-1.46.53-2.16a3.58,3.58,0,0,1,3.49-2.73h1.1a3.58,3.58,0,0,1,3.5,2.76l.5,2.13c.42,1.75.87,3.56,1.33,5.44s.95,3.78,1.45,5.71,1,3.83,1.58,5.68c.51-1.76,1-3.61,1.53-5.52s1-3.82,1.43-5.72.86-3.73,1.27-5.52q.24-1.11.48-2.16a3.59,3.59,0,0,1,3.51-2.8h2.12a3.6,3.6,0,0,1,3.46,4.6q-.76,2.6-1.56,5.16-1.49,4.83-2.91,9.15t-2.79,8c-.55,1.49-1.07,2.85-1.57,4.08a3.58,3.58,0,0,1-3.33,2.24H331.9a3.62,3.62,0,0,1-3.43-2.5c-.77-2.36-1.53-4.7-2.28-7Q324.68,317.71,323.41,312.92Z"/><path d="M363,289.17a5.13,5.13,0,0,1-1.68,4.07,6,6,0,0,1-7.89,0,5.79,5.79,0,0,1,0-8.14,6,6,0,0,1,7.89,0A5.16,5.16,0,0,1,363,289.17ZM358.5,332h-2.22a3.6,3.6,0,0,1-3.6-3.6v-26a3.6,3.6,0,0,1,3.6-3.6h2.22a3.6,3.6,0,0,1,3.59,3.6v26A3.6,3.6,0,0,1,358.5,332Z"/><path d="M370.93,302.74a3.62,3.62,0,0,1,2.91-3.54c1-.2,2.08-.4,3.28-.59a50.91,50.91,0,0,1,8-.6,19.29,19.29,0,0,1,7,1.11,10.56,10.56,0,0,1,4.45,3.12,12.11,12.11,0,0,1,2.34,4.8,25.78,25.78,0,0,1,.69,6.19v15.16A3.6,3.6,0,0,1,396,332h-2.22a3.6,3.6,0,0,1-3.6-3.6v-14q0-4.55-1.19-6.44c-.81-1.27-2.3-1.9-4.49-1.9-.67,0-1.39,0-2.15.1s-1.43.13-2,.22v22a3.6,3.6,0,0,1-3.59,3.6h-2.22a3.6,3.6,0,0,1-3.6-3.6Z"/><path d="M417.67,325.23a9.57,9.57,0,0,0,3.66-.5,2,2,0,0,0,1.07-2,2.39,2.39,0,0,0-1.39-2,26.08,26.08,0,0,0-4.23-1.93,41.72,41.72,0,0,1-4-1.7,11.78,11.78,0,0,1-3.06-2.12,8.58,8.58,0,0,1-2-2.93,11,11,0,0,1-.69-4.11,8.87,8.87,0,0,1,3.47-7.39q3.47-2.72,9.54-2.71a31.31,31.31,0,0,1,5.81.53l.91.19a3.6,3.6,0,0,1,2.76,4.31l-.07.33a3.6,3.6,0,0,1-4.36,2.67h0a19,19,0,0,0-4.32-.45c-2.95,0-4.42.83-4.42,2.47a2.49,2.49,0,0,0,.19,1,2.11,2.11,0,0,0,.76.85,11.37,11.37,0,0,0,1.54.89c.66.32,1.49.67,2.5,1.05a37.88,37.88,0,0,1,5.11,2.26,12.13,12.13,0,0,1,3.19,2.4,7.41,7.41,0,0,1,1.64,2.87,12.59,12.59,0,0,1,.48,3.66,8.41,8.41,0,0,1-3.7,7.43q-3.69,2.52-10.45,2.52a29.81,29.81,0,0,1-7.36-.76c-.29-.07-.57-.14-.83-.22a3.6,3.6,0,0,1-2.59-4.2l.12-.56a3.57,3.57,0,0,1,4.36-2.76c.46.12.92.23,1.38.32A23.74,23.74,0,0,0,417.67,325.23Z"/><path class="cls-2" d="M324.37,104.87v64.47a5.66,5.66,0,0,0,8.27,5l62.75-32.48a5.66,5.66,0,0,0,0-10.07l-62.75-32A5.67,5.67,0,0,0,324.37,104.87Z"/><path class="cls-2" d="M95.18,104.87v64.47a5.66,5.66,0,0,0,8.27,5l62.75-32.48a5.66,5.66,0,0,0,0-10.07l-62.75-32A5.67,5.67,0,0,0,95.18,104.87Z"/></svg>