<svg id="Camada_1" data-name="Camada 1" xmlns="http://www.w3.org/2000/svg" xmlns:xlink="http://www.w3.org/1999/xlink" viewBox="0 0 500 500"><defs><style>.cls-1{fill:url(#Gradiente_sem_nome_52);}.cls-2{fill:url(#Gradiente_sem_nome_49);}</style><linearGradient id="Gradiente_sem_nome_52" x1="203.35" y1="242.34" x2="223.8" y2="242.34" gradientUnits="userSpaceOnUse"><stop offset="0" stop-color="#cf362e"/><stop offset="1" stop-color="#ed1c24"/></linearGradient><linearGradient id="Gradiente_sem_nome_49" x1="386.75" y1="242.34" x2="407.2" y2="242.34" gradientUnits="userSpaceOnUse"><stop offset="0" stop-color="#ed1c24"/><stop offset="1" stop-color="#cf362e"/></linearGradient></defs><path d="M18.19,224.17q13.56,0,20.82,4.77t7.26,15.61q0,10.94-7.35,15.79t-21,4.85H13.64V280.5a5,5,0,0,1-5,5H5a5,5,0,0,1-5-5V230a5,5,0,0,1,4.33-5c1.65-.22,3.36-.39,5.12-.52Q14.43,224.18,18.19,224.17Zm.88,11.64c-1,0-2,0-2.93.08l-2.5.18v17.49h4.29q7.08,0,10.67-1.93t3.59-7.17a8.65,8.65,0,0,0-.92-4.2,7.06,7.06,0,0,0-2.63-2.66,11.72,11.72,0,0,0-4.15-1.4A34.58,34.58,0,0,0,19.07,235.81Z"/><path d="M74.57,281.94A5,5,0,0,1,69,286.05a24,24,0,0,1-4.4-.92,13.6,13.6,0,0,1-5.6-3.19,10.63,10.63,0,0,1-2.8-5,27.27,27.27,0,0,1-.74-6.61V224A5,5,0,0,1,59.64,219l3.07-.5a5,5,0,0,1,5.77,4.92v44.27a17.67,17.67,0,0,0,.26,3.15,5.45,5.45,0,0,0,1,2.36,5.33,5.33,0,0,0,2.14,1.57,11.78,11.78,0,0,0,3.76.79Z"/><path d="M100.93,238.25a30,30,0,0,1,9.62,1.32,14.79,14.79,0,0,1,6.16,3.76,13.73,13.73,0,0,1,3.28,5.94,29.45,29.45,0,0,1,1,7.79v23a5,5,0,0,1-4.07,4.9c-1.12.2-2.36.42-3.72.64a74.12,74.12,0,0,1-12.07.83,38.63,38.63,0,0,1-8.09-.78,17.74,17.74,0,0,1-6.25-2.58,11.83,11.83,0,0,1-4-4.68,16.09,16.09,0,0,1-1.4-7.09A13.42,13.42,0,0,1,83,264.49,12.48,12.48,0,0,1,87.28,260a19.42,19.42,0,0,1,6.21-2.4,34.58,34.58,0,0,1,7.26-.75,42.78,42.78,0,0,1,4.51.22,21,21,0,0,1,3.19.57v-1.22a7.22,7.22,0,0,0-2-5.34c-1.34-1.34-3.68-2-7-2a44.64,44.64,0,0,0-6.56.48l-.68.11a5,5,0,0,1-5.77-4.12l-.81-5.13c.76-.23,1.71-.48,2.84-.74s2.38-.5,3.72-.7,2.76-.38,4.24-.53S99.41,238.25,100.93,238.25Zm1,38.14c1.28,0,2.5,0,3.67-.09a27.86,27.86,0,0,0,2.8-.26v-9.89c-.53-.11-1.31-.23-2.36-.35a28,28,0,0,0-2.89-.17,25.13,25.13,0,0,0-3.45.22,8.89,8.89,0,0,0-2.85.83A4.94,4.94,0,0,0,95,268.34a4.59,4.59,0,0,0-.7,2.62c0,2.05.68,3.46,2.06,4.24A11.32,11.32,0,0,0,102,276.39Z"/><path d="M165.83,239.48a5,5,0,0,1,4.77,6.43q-3,9.72-6.28,18.49Q160,276,154.93,287a51.57,51.57,0,0,1-3.67,6.69,20.75,20.75,0,0,1-4,4.55,14.07,14.07,0,0,1-4.94,2.62,22.22,22.22,0,0,1-6.44.83,27,27,0,0,1-9.9-1.83l2.28-10.41a23.36,23.36,0,0,0,3.58,1,20.82,20.82,0,0,0,3.33.26,7.31,7.31,0,0,0,5.38-1.88,12.67,12.67,0,0,0,2-2.74,4.91,4.91,0,0,0,.09-4.59q-3.93-7.94-7.85-17.51-3.36-8.21-6.43-17.92a5,5,0,0,1,4.75-6.52h3.28a5,5,0,0,1,4.79,3.62c.34,1.21.71,2.47,1.09,3.77q1.19,4,2.51,8c.87,2.71,1.77,5.34,2.67,7.91s1.78,4.9,2.6,7q1.14-3.15,2.37-7c.82-2.57,1.62-5.2,2.41-7.91s1.55-5.4,2.29-8c.35-1.28.69-2.52,1-3.71a5,5,0,0,1,4.81-3.68Z"/><path d="M198.59,281.94a5,5,0,0,1-5.59,4.11,23.93,23.93,0,0,1-4.39-.92,13.53,13.53,0,0,1-5.6-3.19,10.63,10.63,0,0,1-2.8-5,26.78,26.78,0,0,1-.74-6.61V224a5,5,0,0,1,4.19-4.91l3.06-.5a5,5,0,0,1,5.78,4.92v44.27a17.67,17.67,0,0,0,.26,3.15,5.45,5.45,0,0,0,1,2.36,5.33,5.33,0,0,0,2.14,1.57,11.78,11.78,0,0,0,3.76.79Z"/><path d="M245.58,276.12a13,13,0,0,0,5.08-.7,2.69,2.69,0,0,0,1.48-2.71,3.32,3.32,0,0,0-1.92-2.75,36.22,36.22,0,0,0-5.86-2.67,59.4,59.4,0,0,1-5.55-2.36,16.32,16.32,0,0,1-4.25-2.93,11.9,11.9,0,0,1-2.71-4.07,15.06,15.06,0,0,1-1-5.68A12.26,12.26,0,0,1,235.7,242q4.81-3.77,13.21-3.77a41.87,41.87,0,0,1,8,.75l1.27.25a5,5,0,0,1,3.82,6l-.1.46a5,5,0,0,1-6,3.69h0a26.79,26.79,0,0,0-6-.61q-6.12,0-6.12,3.41a3.64,3.64,0,0,0,.26,1.4,2.9,2.9,0,0,0,1.05,1.18A14.64,14.64,0,0,0,247.2,256c.9.44,2.06.93,3.46,1.45a55.17,55.17,0,0,1,7.08,3.13,17,17,0,0,1,4.42,3.34,10.24,10.24,0,0,1,2.27,4,17.49,17.49,0,0,1,.66,5.06q0,6.81-5.12,10.3t-14.47,3.49a41.53,41.53,0,0,1-10.19-1l-1.16-.31a5,5,0,0,1-3.58-5.82l.16-.77a5,5,0,0,1,6.05-3.83c.62.17,1.26.31,1.9.45A32.8,32.8,0,0,0,245.58,276.12Z"/><path d="M320.62,229.85v1.67a5,5,0,0,1-5,5h-8.32a5,5,0,0,0-5,5v39a5,5,0,0,1-5,5h-3.68a5,5,0,0,1-5-5v-39a5,5,0,0,0-5-5H275.4a5,5,0,0,1-5-5v-1.67a5,5,0,0,1,5-5h40.24A5,5,0,0,1,320.62,229.85Z"/><path d="M350,259.07q-1.75,6.65-3.72,13.21-1.46,4.85-3,9.74a5,5,0,0,1-4.75,3.46h-3.18a5,5,0,0,1-4.62-3.11c-.68-1.71-1.4-3.58-2.14-5.63-1.23-3.39-2.5-7.07-3.82-11.07s-2.66-8.22-4-12.68q-1.1-3.56-2.15-7.15a5,5,0,0,1,4.78-6.36h3.12a5,5,0,0,1,4.86,3.88c.21,1,.44,2,.67,3,.56,2.48,1.14,5,1.76,7.66s1.26,5.26,1.93,7.91,1.37,5.21,2.07,7.65q1.14-3.84,2.23-7.87t2.1-7.91c.67-2.6,1.31-5.1,1.93-7.52.26-1,.5-2,.74-3a4.94,4.94,0,0,1,4.83-3.77h1.52a5,5,0,0,1,4.84,3.81c.22,1,.46,2,.7,3,.59,2.42,1.2,4.92,1.84,7.52s1.31,5.23,2,7.91,1.43,5.31,2.19,7.87c.7-2.44,1.41-5,2.11-7.65s1.36-5.29,2-7.91,1.2-5.18,1.76-7.66c.23-1,.45-2,.67-3a5,5,0,0,1,4.86-3.88H377a5,5,0,0,1,4.79,6.37q-1.06,3.59-2.16,7.14-2.06,6.69-4,12.68c-1.32,4-2.6,7.68-3.86,11.07-.76,2.05-1.49,3.94-2.18,5.65a5,5,0,0,1-4.61,3.09h-3.2A5,5,0,0,1,357,282q-1.61-4.89-3.15-9.74Q351.72,265.71,350,259.07Z"/><path class="cls-1" d="M223.8,208.45a9.39,9.39,0,0,1-3,7.41,10.91,10.91,0,0,1-14.37,0,10.55,10.55,0,0,1,0-14.82,10.91,10.91,0,0,1,14.37,0A9.38,9.38,0,0,1,223.8,208.45Zm-8.15,77.9h-4a6.55,6.55,0,0,1-6.55-6.55V232.45a6.54,6.54,0,0,1,6.55-6.54h4a6.54,6.54,0,0,1,6.54,6.54V279.8A6.54,6.54,0,0,1,215.65,286.35Z"/><path class="cls-2" d="M407.2,208.45a9.39,9.39,0,0,1-3,7.41,10.91,10.91,0,0,1-14.37,0,10.55,10.55,0,0,1,0-14.82,10.91,10.91,0,0,1,14.37,0A9.38,9.38,0,0,1,407.2,208.45Zm-8.15,77.9h-4a6.55,6.55,0,0,1-6.55-6.55V232.45a6.54,6.54,0,0,1,6.55-6.54h4a6.54,6.54,0,0,1,6.54,6.54V279.8A6.54,6.54,0,0,1,399.05,286.35Z"/><path d="M415.78,245a5,5,0,0,1,4-4.89c1.37-.28,2.89-.56,4.55-.82a70.91,70.91,0,0,1,11-.83,26.85,26.85,0,0,1,9.75,1.53,14.68,14.68,0,0,1,6.17,4.33,16.93,16.93,0,0,1,3.23,6.65,35.39,35.39,0,0,1,1,8.57v21a5,5,0,0,1-5,5h-3.07a5,5,0,0,1-5-5V261.08q0-6.3-1.66-8.92t-6.21-2.62c-.93,0-1.92,0-3,.13s-2,.19-2.8.3V280.5a5,5,0,0,1-5,5h-3.07a5,5,0,0,1-5-5Z"/><path d="M480.5,276.12a12.92,12.92,0,0,0,5.07-.7,2.69,2.69,0,0,0,1.49-2.71,3.33,3.33,0,0,0-1.93-2.75,35.81,35.81,0,0,0-5.86-2.67,59.4,59.4,0,0,1-5.55-2.36,16.26,16.26,0,0,1-4.24-2.93,11.76,11.76,0,0,1-2.71-4.07,14.86,14.86,0,0,1-1-5.68A12.29,12.29,0,0,1,470.61,242q4.81-3.77,13.21-3.77a42.05,42.05,0,0,1,8.05.75l1.26.25a5,5,0,0,1,3.83,6l-.11.46a5,5,0,0,1-6,3.69h-.06a26.73,26.73,0,0,0-6-.61q-6.12,0-6.12,3.41a3.64,3.64,0,0,0,.26,1.4,3.06,3.06,0,0,0,1.05,1.18,14.82,14.82,0,0,0,2.15,1.23c.9.44,2.05.93,3.45,1.45a53.94,53.94,0,0,1,7.08,3.13,17,17,0,0,1,4.42,3.34,10.11,10.11,0,0,1,2.27,4,17.49,17.49,0,0,1,.66,5.06q0,6.81-5.12,10.3t-14.47,3.49a41.59,41.59,0,0,1-10.19-1l-1.16-.31a5,5,0,0,1-3.58-5.82l.16-.77a5,5,0,0,1,6.05-3.83c.63.17,1.26.31,1.9.45A32.82,32.82,0,0,0,480.5,276.12Z"/></svg>