<svg id="Camada_1" data-name="Camada 1" xmlns="http://www.w3.org/2000/svg" xmlns:xlink="http://www.w3.org/1999/xlink" viewBox="0 0 500 103.33"><defs><style>.cls-1{fill:url(#Gradiente_sem_nome_52);}.cls-2{fill:url(#Gradiente_sem_nome_49);}</style><linearGradient id="Gradiente_sem_nome_52" x1="203.35" y1="44.01" x2="223.8" y2="44.01" gradientUnits="userSpaceOnUse"><stop offset="0" stop-color="#cf362e"/><stop offset="1" stop-color="#ed1c24"/></linearGradient><linearGradient id="Gradiente_sem_nome_49" x1="386.75" y1="44.01" x2="407.2" y2="44.01" gradientUnits="userSpaceOnUse"><stop offset="0" stop-color="#ed1c24"/><stop offset="1" stop-color="#cf362e"/></linearGradient></defs><path d="M18.19,25.84q13.56,0,20.82,4.76t7.26,15.61q0,10.93-7.35,15.79t-21,4.86H13.64V82.17a5,5,0,0,1-5,5H5a5,5,0,0,1-5-5V31.66a5,5,0,0,1,4.33-5c1.65-.22,3.36-.39,5.12-.51C12.77,26,15.68,25.84,18.19,25.84Zm.88,11.63c-1,0-2,0-2.93.09s-1.8.11-2.5.17V55.22h4.29q7.08,0,10.67-1.92t3.59-7.17a8.65,8.65,0,0,0-.92-4.2,7,7,0,0,0-2.63-2.67,11.93,11.93,0,0,0-4.15-1.4A34.58,34.58,0,0,0,19.07,37.47Z"/><path d="M74.57,83.6A5,5,0,0,1,69,87.71a24.09,24.09,0,0,1-4.4-.91A13.61,13.61,0,0,1,59,83.6a10.63,10.63,0,0,1-2.8-5,27.19,27.19,0,0,1-.74-6.6V25.62a5,5,0,0,1,4.19-4.92l3.07-.49a5,5,0,0,1,5.77,4.91V69.39a17.59,17.59,0,0,0,.26,3.15,5.45,5.45,0,0,0,1,2.36,5.35,5.35,0,0,0,2.14,1.58,11.81,11.81,0,0,0,3.76.78Z"/><path d="M100.93,39.92a30.32,30.32,0,0,1,9.62,1.31A14.9,14.9,0,0,1,116.71,45,13.77,13.77,0,0,1,120,50.94a29.38,29.38,0,0,1,1,7.78v23a5,5,0,0,1-4.07,4.89c-1.12.21-2.36.42-3.72.65a75.26,75.26,0,0,1-12.07.83A37.94,37.94,0,0,1,93,87.32a17.37,17.37,0,0,1-6.25-2.58,11.7,11.7,0,0,1-4-4.68A16,16,0,0,1,81.34,73,13.39,13.39,0,0,1,83,66.16a12.32,12.32,0,0,1,4.32-4.46,19.67,19.67,0,0,1,6.21-2.41,35.26,35.26,0,0,1,7.26-.74,40.25,40.25,0,0,1,4.51.22,20,20,0,0,1,3.19.56V58.11a7.23,7.23,0,0,0-2-5.34c-1.34-1.34-3.68-2-7-2a44.64,44.64,0,0,0-6.56.48l-.68.11a5,5,0,0,1-5.77-4.11l-.81-5.14c.76-.23,1.71-.48,2.84-.74s2.38-.49,3.72-.7,2.76-.38,4.24-.52A45,45,0,0,1,100.93,39.92Zm1,38.13c1.28,0,2.5,0,3.67-.09a23,23,0,0,0,2.8-.26V67.82c-.53-.12-1.31-.23-2.36-.35a25.56,25.56,0,0,0-2.89-.18,26.81,26.81,0,0,0-3.45.22,9.15,9.15,0,0,0-2.85.83A4.94,4.94,0,0,0,95,70a4.62,4.62,0,0,0-.7,2.63c0,2,.68,3.45,2.06,4.24A11.3,11.3,0,0,0,102,78.05Z"/><path d="M165.83,41.14a5,5,0,0,1,4.77,6.44q-3,9.72-6.28,18.49Q160,77.69,154.93,88.63a50.27,50.27,0,0,1-3.67,6.69,20.53,20.53,0,0,1-4,4.55,14.09,14.09,0,0,1-4.94,2.63,22.57,22.57,0,0,1-6.44.83,26.25,26.25,0,0,1-5.65-.57,25,25,0,0,1-4.25-1.27l2.28-10.41a21.26,21.26,0,0,0,3.58,1,19.7,19.7,0,0,0,3.33.27,7.31,7.31,0,0,0,5.38-1.88,12.74,12.74,0,0,0,2-2.75,4.9,4.9,0,0,0,.09-4.59q-3.93-7.92-7.85-17.5-3.36-8.21-6.43-17.93a5,5,0,0,1,4.75-6.52h3.28a5,5,0,0,1,4.79,3.63c.34,1.21.71,2.46,1.09,3.76q1.19,4,2.51,8c.87,2.71,1.77,5.35,2.67,7.91s1.78,4.9,2.6,7q1.14-3.15,2.37-7t2.41-7.91q1.19-4.06,2.29-8c.35-1.28.69-2.51,1-3.71a5,5,0,0,1,4.81-3.68Z"/><path d="M198.59,83.6A5,5,0,0,1,193,87.71a24,24,0,0,1-4.39-.91,13.54,13.54,0,0,1-5.6-3.2,10.63,10.63,0,0,1-2.8-5,26.7,26.7,0,0,1-.74-6.6V25.62a5,5,0,0,1,4.19-4.92l3.06-.49a5,5,0,0,1,5.78,4.91V69.39a17.59,17.59,0,0,0,.26,3.15,5.45,5.45,0,0,0,1,2.36,5.35,5.35,0,0,0,2.14,1.58,11.81,11.81,0,0,0,3.76.78Z"/><path d="M245.58,77.79a13,13,0,0,0,5.08-.7,2.7,2.7,0,0,0,1.48-2.71,3.33,3.33,0,0,0-1.92-2.76A37.12,37.12,0,0,0,244.36,69a56.84,56.84,0,0,1-5.55-2.36,16.08,16.08,0,0,1-4.25-2.93,11.86,11.86,0,0,1-2.71-4.06,15.12,15.12,0,0,1-1-5.69,12.29,12.29,0,0,1,4.81-10.23q4.81-3.76,13.21-3.76a42.69,42.69,0,0,1,8,.74l1.27.26a5,5,0,0,1,3.82,6l-.1.45a5,5,0,0,1-6,3.7h0a26.76,26.76,0,0,0-6-.62q-6.12,0-6.12,3.41a3.57,3.57,0,0,0,.26,1.4,2.9,2.9,0,0,0,1.05,1.18,14.64,14.64,0,0,0,2.14,1.23c.9.45,2.06.93,3.46,1.46a53.81,53.81,0,0,1,7.08,3.13,17,17,0,0,1,4.42,3.33,10.31,10.31,0,0,1,2.27,4,17.54,17.54,0,0,1,.66,5.06q0,6.81-5.12,10.3T245.5,88.37a41.53,41.53,0,0,1-10.19-1.05l-1.16-.3a5,5,0,0,1-3.58-5.82l.16-.78a4.94,4.94,0,0,1,6.05-3.82c.62.16,1.26.31,1.9.44A32.82,32.82,0,0,0,245.58,77.79Z"/><path d="M320.62,31.52v1.67a5,5,0,0,1-5,5h-8.32a5,5,0,0,0-5,5v39a5,5,0,0,1-5,5h-3.68a5,5,0,0,1-5-5v-39a5,5,0,0,0-5-5H275.4a5,5,0,0,1-5-5V31.52a5,5,0,0,1,5-5h40.24A5,5,0,0,1,320.62,31.52Z"/><path d="M350,60.73q-1.75,6.65-3.72,13.21-1.46,4.84-3,9.75a5,5,0,0,1-4.75,3.46h-3.18A4.94,4.94,0,0,1,330.67,84c-.68-1.7-1.4-3.58-2.14-5.63q-1.84-5.07-3.82-11.06t-4-12.68c-.73-2.37-1.45-4.76-2.15-7.15a5,5,0,0,1,4.78-6.37h3.12A5,5,0,0,1,331.29,45c.21,1,.44,2,.67,3,.56,2.48,1.14,5,1.76,7.65s1.26,5.26,1.93,7.92,1.37,5.2,2.07,7.65q1.14-3.86,2.23-7.87t2.1-7.92q1-3.88,1.93-7.52c.26-1,.5-2,.74-3a4.94,4.94,0,0,1,4.83-3.78h1.52A5,5,0,0,1,355.91,45c.22,1,.46,1.94.7,3q.88,3.63,1.84,7.52t2,7.92q1.05,4,2.19,7.87c.7-2.45,1.41-5,2.11-7.65s1.36-5.3,2-7.92,1.2-5.17,1.76-7.65c.23-1,.45-2,.67-3A5,5,0,0,1,374,41.14H377a5,5,0,0,1,4.79,6.37c-.71,2.39-1.43,4.78-2.16,7.15q-2.06,6.69-4,12.68T371.71,78.4q-1.14,3.09-2.18,5.65a5,5,0,0,1-4.61,3.1h-3.2A5,5,0,0,1,357,83.69q-1.61-4.91-3.15-9.75Q351.72,67.38,350,60.73Z"/><path class="cls-1" d="M223.8,10.11a9.39,9.39,0,0,1-3,7.41,10.91,10.91,0,0,1-14.37,0,9.39,9.39,0,0,1-3-7.41,9.39,9.39,0,0,1,3-7.41,10.91,10.91,0,0,1,14.37,0A9.39,9.39,0,0,1,223.8,10.11ZM215.65,88h-4a6.54,6.54,0,0,1-6.55-6.54V34.12a6.55,6.55,0,0,1,6.55-6.55h4a6.54,6.54,0,0,1,6.54,6.55V81.47A6.54,6.54,0,0,1,215.65,88Z"/><path class="cls-2" d="M407.2,10.11a9.39,9.39,0,0,1-3,7.41,10.91,10.91,0,0,1-14.37,0,9.39,9.39,0,0,1-3-7.41,9.39,9.39,0,0,1,3-7.41,10.91,10.91,0,0,1,14.37,0A9.39,9.39,0,0,1,407.2,10.11ZM399.05,88h-4a6.54,6.54,0,0,1-6.55-6.54V34.12A6.55,6.55,0,0,1,395,27.57h4a6.54,6.54,0,0,1,6.54,6.55V81.47A6.54,6.54,0,0,1,399.05,88Z"/><path d="M415.78,46.63a5,5,0,0,1,4-4.89c1.37-.28,2.89-.55,4.55-.82a70.91,70.91,0,0,1,11-.83,26.85,26.85,0,0,1,9.75,1.53A14.77,14.77,0,0,1,451.29,46a17,17,0,0,1,3.23,6.65,35.45,35.45,0,0,1,1,8.57v21a5,5,0,0,1-5,5h-3.07a5,5,0,0,1-5-5V62.74c0-4.19-.55-7.17-1.66-8.92s-3.18-2.62-6.21-2.62c-.93,0-1.92,0-3,.13s-2,.19-2.8.31V82.17a5,5,0,0,1-5,5h-3.07a5,5,0,0,1-5-5Z"/><path d="M480.5,77.79a12.92,12.92,0,0,0,5.07-.7,2.71,2.71,0,0,0,1.49-2.71,3.34,3.34,0,0,0-1.93-2.76A36.69,36.69,0,0,0,479.27,69a56.84,56.84,0,0,1-5.55-2.36,16,16,0,0,1-4.24-2.93,11.72,11.72,0,0,1-2.71-4.06,14.91,14.91,0,0,1-1-5.69,12.32,12.32,0,0,1,4.81-10.23q4.81-3.76,13.21-3.76a42.88,42.88,0,0,1,8.05.74l1.26.26a5,5,0,0,1,3.83,6l-.11.45a5,5,0,0,1-6,3.7h-.06a26.7,26.7,0,0,0-6-.62q-6.12,0-6.12,3.41a3.57,3.57,0,0,0,.26,1.4A3.06,3.06,0,0,0,480,56.4a14.82,14.82,0,0,0,2.15,1.23c.9.45,2.05.93,3.45,1.46a52.64,52.64,0,0,1,7.08,3.13,17,17,0,0,1,4.42,3.33,10.18,10.18,0,0,1,2.27,4,17.54,17.54,0,0,1,.66,5.06q0,6.81-5.12,10.3t-14.47,3.49a41.59,41.59,0,0,1-10.19-1.05l-1.16-.3a5,5,0,0,1-3.58-5.82l.16-.78a4.94,4.94,0,0,1,6.05-3.82c.63.16,1.26.31,1.9.44A32.84,32.84,0,0,0,480.5,77.79Z"/></svg>