<svg id="Artwork" xmlns="http://www.w3.org/2000/svg" xmlns:xlink="http://www.w3.org/1999/xlink" viewBox="0 0 135 135"><defs><style>.cls-1,.cls-2{fill-rule:evenodd;}.cls-1{fill:url(#Gradiente_sem_nome_11);}.cls-2{fill:#fff;}</style><linearGradient id="Gradiente_sem_nome_11" x1="18.03" y1="79.98" x2="18.03" y2="55.46" gradientUnits="userSpaceOnUse"><stop offset="0" stop-color="#fa233b"/><stop offset="1" stop-color="#fb5c74"/></linearGradient></defs><path d="M43.62,69.71H38.88l-1.13,3.35h-2l4.49-12.42h2.08L46.8,73.06h-2Zm-4.25-1.55h3.76L41.28,62.7h-.06Z"/><path d="M56.48,68.53c0,2.82-1.51,4.63-3.78,4.63a3.07,3.07,0,0,1-2.85-1.58H49.8v4.48H47.94V64h1.8v1.51h0a3.21,3.21,0,0,1,2.88-1.6C55,63.91,56.48,65.73,56.48,68.53Zm-1.91,0c0-1.83-1-3-2.4-3s-2.38,1.24-2.38,3,1,3,2.38,3S54.57,70.39,54.57,68.53Z"/><path d="M66.44,68.53c0,2.82-1.5,4.63-3.78,4.63a3.08,3.08,0,0,1-2.85-1.58h0v4.48H57.91V64h1.8v1.51h0a3.22,3.22,0,0,1,2.89-1.6C64.93,63.91,66.44,65.73,66.44,68.53Zm-1.91,0c0-1.83-1-3-2.39-3s-2.38,1.24-2.38,3,1,3,2.38,3S64.53,70.39,64.53,68.53Z"/><path d="M67.94,60.64H69.8V73.06H67.94Z"/><path d="M79.48,70.4c-.25,1.65-1.85,2.78-3.9,2.78-2.63,0-4.27-1.77-4.27-4.6S73,63.89,75.5,63.89s4.09,1.73,4.09,4.47V69h-6.4v.11a2.36,2.36,0,0,0,2.43,2.57,2.05,2.05,0,0,0,2.1-1.28ZM73.2,67.7h4.53a2.18,2.18,0,0,0-2.23-2.3A2.29,2.29,0,0,0,73.2,67.7Z"/><path d="M95.63,73.06V63.92h-.06l-3.75,9H90.39l-3.75-9h-.06v9.14H84.82V60.64h2.23l4,9.81h.06l4-9.81H97.4V73.06Z"/><path d="M107.3,73.06h-1.78V71.51h0a2.84,2.84,0,0,1-2.81,1.66,3,3,0,0,1-3.18-3.35V64h1.86v5.46c0,1.37.66,2.11,1.94,2.11a2.1,2.1,0,0,0,2.15-2.35V64h1.86Z"/><path d="M112.59,63.9c2,0,3.45,1.11,3.49,2.71h-1.75c-.08-.8-.75-1.29-1.79-1.29s-1.68.47-1.68,1.17.45.91,1.39,1.14l1.52.35c1.83.44,2.52,1.12,2.52,2.44,0,1.64-1.55,2.76-3.77,2.76s-3.57-1.1-3.71-2.75h1.84c.13.87.83,1.33,2,1.33s1.81-.45,1.81-1.18c0-.55-.35-.86-1.29-1.1l-1.62-.39c-1.64-.4-2.47-1.24-2.47-2.49C109,65,110.48,63.9,112.59,63.9Z"/><path d="M117.74,61.62a1.08,1.08,0,1,1,1.07,1.06A1.06,1.06,0,0,1,117.74,61.62Zm.14,2.38h1.86v9.06h-1.86Z"/><path d="M127.76,67.12a2,2,0,0,0-2.14-1.67c-1.43,0-2.38,1.2-2.38,3.08s1,3.1,2.4,3.1A2,2,0,0,0,127.76,70h1.79a3.63,3.63,0,0,1-3.93,3.18c-2.58,0-4.27-1.77-4.27-4.65s1.69-4.64,4.25-4.64a3.64,3.64,0,0,1,3.93,3.23Z"/><path class="cls-1" d="M30.62,62.79c0-.3,0-.6,0-.9s0-.51,0-.76a10.11,10.11,0,0,0-.14-1.65,5.53,5.53,0,0,0-.52-1.58,5.28,5.28,0,0,0-1-1.33,5.37,5.37,0,0,0-1.34-1,5.77,5.77,0,0,0-1.57-.51,11.5,11.5,0,0,0-1.65-.15H11.66a11.37,11.37,0,0,0-1.65.15,5.77,5.77,0,0,0-1.57.51,5.2,5.2,0,0,0-1.34,1,5.28,5.28,0,0,0-1,1.33,5.53,5.53,0,0,0-.52,1.58,10.11,10.11,0,0,0-.14,1.65c0,.25,0,.5,0,.76V73.11c0,.26,0,.51,0,.76a10.11,10.11,0,0,0,.14,1.65,5.53,5.53,0,0,0,.52,1.58,5.28,5.28,0,0,0,1,1.33,5.2,5.2,0,0,0,1.34,1,5.77,5.77,0,0,0,1.57.51,11.37,11.37,0,0,0,1.65.15H24.41a11.5,11.5,0,0,0,1.65-.15,5.77,5.77,0,0,0,1.57-.51,5.37,5.37,0,0,0,1.34-1,5.28,5.28,0,0,0,1-1.33,5.53,5.53,0,0,0,.52-1.58,10.11,10.11,0,0,0,.14-1.65c0-.25,0-.5,0-.76s0-.6,0-.9Z"/><g id="Glyph"><path class="cls-2" d="M23.24,58.76l-.66.12L15.1,60.39h0a1,1,0,0,0-.46.21.71.71,0,0,0-.25.48,1.26,1.26,0,0,0,0,.26V70.7a.9.9,0,0,1-.17.61.86.86,0,0,1-.54.28l-.49.1a7.16,7.16,0,0,0-1.38.35,2.1,2.1,0,0,0-.82.52,2,2,0,0,0,1,3.28,3.59,3.59,0,0,0,1.35-.07,2.86,2.86,0,0,0,.87-.32,2.35,2.35,0,0,0,.69-.64,2.32,2.32,0,0,0,.36-.86,4.19,4.19,0,0,0,.09-.93V64.9c0-.44.12-.55.47-.64L22.31,63c.4-.07.59,0,.59.47V69a.9.9,0,0,1-.15.62.84.84,0,0,1-.54.28l-.49.1a8.4,8.4,0,0,0-1.39.35,2.18,2.18,0,0,0-.81.52A2,2,0,0,0,19,72.4a2,2,0,0,0,.64,1.24,1.86,1.86,0,0,0,.9.47A3.58,3.58,0,0,0,21.87,74a3.1,3.1,0,0,0,.88-.32,2.34,2.34,0,0,0,.69-.64,2.25,2.25,0,0,0,.36-.86,4.17,4.17,0,0,0,.07-.93V59.42C23.87,59,23.65,58.73,23.24,58.76Z"/></g></svg>