<?xml version="1.0" encoding="utf-8"?>
<!-- Generator: Adobe Illustrator 24.3.0, SVG Export Plug-In . SVG Version: 6.00 Build 0)  -->
<svg version="1.1" id="PTBR" xmlns="http://www.w3.org/2000/svg" xmlns:xlink="http://www.w3.org/1999/xlink" x="0px" y="0px"
	 width="124.1188px" height="26.7775px" viewBox="0 0 124.1188 26.7775" style="enable-background:new 0 0 124.1188 26.7775;"
	 xml:space="preserve">
<style type="text/css">
	.st0{fill:#FFFFFF;}
	.st1{fill-rule:evenodd;clip-rule:evenodd;fill:url(#SVGID_1_);}
	.st2{fill-rule:evenodd;clip-rule:evenodd;fill:#FFFFFF;}
</style>
<g>
	<g>
		<g>
			<path class="st0" d="M38.192,20.4259h-4.7334l-1.1367,3.3564H30.317l4.4834-12.4189h2.083l4.4834,12.4189h-2.0391L38.192,20.4259
				z M33.9489,18.8771h3.752l-1.8496-5.4482h-0.0518L33.9489,18.8771z"/>
			<path class="st0" d="M51.0495,19.256c0,2.8652-1.5059,4.6816-3.7783,4.6816c-1.2988,0-2.332-0.6377-2.8486-1.6445h-0.043v4.4844
				h-1.8584V14.7287H44.32v1.5576h0.0342c0.5332-1.041,1.5752-1.7041,2.8828-1.7041C49.5348,14.5822,51.0495,16.3898,51.0495,19.256
				z M49.1393,19.256c0-1.8936-0.9209-3.1074-2.3926-3.1074c-1.4199,0-2.375,1.2393-2.375,3.1074
				c0,1.8848,0.9463,3.1064,2.375,3.1064C48.2184,22.3625,49.1393,21.1574,49.1393,19.256z"/>
			<path class="st0" d="M61.0143,19.256c0,2.8652-1.5059,4.6816-3.7783,4.6816c-1.2988,0-2.332-0.6377-2.8486-1.6445h-0.043v4.4844
				H52.486V14.7287h1.7988v1.5576h0.0342c0.5332-1.041,1.5752-1.7041,2.8828-1.7041C59.4996,14.5822,61.0143,16.3898,61.0143,19.256
				z M59.1041,19.256c0-1.8936-0.9209-3.1074-2.3926-3.1074c-1.4199,0-2.375,1.2393-2.375,3.1074
				c0,1.8848,0.9463,3.1064,2.375,3.1064C58.1832,22.3625,59.1041,21.1574,59.1041,19.256z"/>
			<path class="st0" d="M62.5192,11.3634h1.8594v12.4189h-1.8594V11.3634z"/>
			<path class="st0" d="M74.0543,21.1232c-0.2588,1.6523-1.8242,2.8311-3.8984,2.8311c-2.6592,0-4.2686-1.7988-4.2686-4.6553
				c0-2.8398,1.6348-4.7334,4.1904-4.7334c2.5137,0,4.0801,1.7725,4.0801,4.5176v0.6367h-6.3945v0.1123
				c0,1.5752,0.9463,2.6162,2.4355,2.6162c1.0586,0,1.8418-0.5332,2.0908-1.3252H74.0543z M67.7721,18.4211h4.5264
				c-0.043-1.3857-0.9209-2.3584-2.2207-2.3584C68.7789,16.0627,67.8668,17.0529,67.7721,18.4211z"/>
			<path class="st0" d="M90.2008,23.7824v-9.1396h-0.0605l-3.7432,9.1396h-1.4287l-3.7529-9.1396h-0.0596v9.1396H79.4V11.3634
				h2.2295l4.0186,9.8975h0.0684l4.0107-9.8975h2.2373v12.4189H90.2008z"/>
			<path class="st0" d="M101.8746,23.7824h-1.7812v-1.5322h-0.043c-0.5,1.085-1.4209,1.6953-2.8057,1.6953
				c-1.9707,0-3.1758-1.2822-3.1758-3.3555v-5.8613h1.8584v5.499c0,1.377,0.6543,2.1172,1.9365,2.1172
				c1.3428,0,2.1514-0.9287,2.1514-2.3408v-5.2754h1.8594V23.7824z"/>
			<path class="st0" d="M107.1168,14.5656c2.1084,0,3.4775,1.1699,3.5371,2.8398h-1.7471c-0.1025-0.8779-0.748-1.4287-1.79-1.4287
				c-1.0068,0-1.6777,0.4902-1.6777,1.2139c0,0.5674,0.4131,0.9551,1.3945,1.1787l1.4717,0.3359
				c1.8496,0.4297,2.5557,1.1533,2.5557,2.4609c0,1.6523-1.541,2.7881-3.6748,2.7881c-2.2637,0-3.623-1.1104-3.7949-2.8311h1.8408
				c0.1729,0.9463,0.8184,1.4111,1.9541,1.4111c1.1191,0,1.8066-0.4648,1.8066-1.2051c0-0.585-0.335-0.9287-1.3252-1.1523
				l-1.4717-0.3447c-1.7207-0.3955-2.5723-1.2217-2.5723-2.5391C103.6236,15.6759,105.0348,14.5656,107.1168,14.5656z"/>
			<path class="st0" d="M112.3151,12.1984c0-0.5938,0.4814-1.0674,1.0752-1.0674s1.0674,0.4736,1.0674,1.0674
				c0,0.585-0.4736,1.0674-1.0674,1.0674S112.3151,12.7834,112.3151,12.1984z M112.4616,14.7287h1.8584v9.0537h-1.8584V14.7287z"/>
			<path class="st0" d="M122.3288,17.8439c-0.1895-0.9639-0.9121-1.7295-2.125-1.7295c-1.4375,0-2.3848,1.1963-2.3848,3.1416
				c0,1.9873,0.9561,3.1406,2.4014,3.1406c1.1445,0,1.8936-0.6279,2.1084-1.6777h1.79c-0.1973,1.9277-1.7383,3.2354-3.915,3.2354
				c-2.5908,0-4.2773-1.7725-4.2773-4.6982c0-2.875,1.6865-4.6904,4.2598-4.6904c2.332,0,3.752,1.4971,3.916,3.2783H122.3288z"/>
		</g>
		<g>
			<g>
				<path class="st0" d="M33.3131,1.4855c1.1826,0,1.9971,0.8184,1.9971,2.0186c0,1.1836-0.8389,1.9971-2.0264,1.9971h-1.4023v2.04
					H30.942V1.4855H33.3131z M31.8815,4.675h1.1836c0.8105,0,1.2842-0.4199,1.2842-1.1709c0-0.7676-0.457-1.1875-1.2842-1.1875
					h-1.1836V4.675z"/>
				<path class="st0" d="M36.5338,2.9709h0.8691V3.672h0.0664c0.1299-0.4492,0.6377-0.7764,1.2344-0.7764
					c0.1338,0,0.3057,0.0127,0.4023,0.0381v0.8896c-0.0752-0.0254-0.3438-0.0547-0.5039-0.0547c-0.6836,0-1.166,0.4316-1.166,1.0742
					v2.6982h-0.9023V2.9709z"/>
				<path class="st0" d="M43.8454,6.3068c-0.1973,0.8145-0.9355,1.3223-1.9805,1.3223c-1.3096,0-2.1104-0.8984-2.1104-2.3584
					S40.5719,2.883,41.861,2.883c1.2715,0,2.0391,0.8691,2.0391,2.3037v0.3145h-3.2266v0.0508
					c0.0293,0.8018,0.4951,1.3096,1.2168,1.3096c0.5449,0,0.9189-0.1973,1.0869-0.5547H43.8454z M40.6735,4.8341h2.3076
					c-0.0215-0.7168-0.458-1.1826-1.125-1.1826S40.7233,4.1212,40.6735,4.8341z M41.5123,2.3459l0.7256-1.4512h0.9736L42.234,2.3459
					H41.5123z"/>
				<path class="st0" d="M45.1198,5.5431V4.6584h2.7529v0.8848H45.1198z"/>
				<path class="st0" d="M49.0563,6.2482c0-0.8223,0.6123-1.2959,1.6992-1.3633l1.2373-0.0713V4.4191
					c0-0.4824-0.3184-0.7559-0.9355-0.7559c-0.5029,0-0.8516,0.1855-0.9521,0.5078h-0.873
					c0.0928-0.7842,0.8311-1.2881,1.8672-1.2881c1.1455,0,1.792,0.5713,1.792,1.5361v3.1221h-0.8682V6.8986h-0.0713
					c-0.2734,0.458-0.7725,0.7178-1.373,0.7178C49.6979,7.6164,49.0563,7.0832,49.0563,6.2482z M51.9928,5.8586V5.4767
					L50.8776,5.548c-0.6299,0.042-0.915,0.2559-0.915,0.6582c0,0.4111,0.3564,0.6504,0.8477,0.6504
					C51.4899,6.8566,51.9928,6.425,51.9928,5.8586z"/>
				<path class="st0" d="M54.07,5.2541c0-1.4434,0.7432-2.3584,1.8965-2.3584c0.625,0,1.1543,0.2979,1.4014,0.8018h0.0674V1.1877
					h0.9023v6.3535h-0.8643V6.8195H57.402c-0.2734,0.499-0.8057,0.7969-1.4355,0.7969C54.8043,7.6164,54.07,6.7013,54.07,5.2541z
					 M55.0016,5.2541c0,0.9697,0.457,1.5527,1.2207,1.5527c0.7598,0,1.2295-0.5918,1.2295-1.5488
					c0-0.9521-0.4736-1.5527-1.2295-1.5527C55.4635,3.7052,55.0016,4.2931,55.0016,5.2541z"/>
				<path class="st0" d="M59.7038,1.591c0-0.3271,0.2559-0.5918,0.5703-0.5918s0.5703,0.2646,0.5703,0.5918
					c0,0.3232-0.2559,0.5869-0.5703,0.5869S59.7038,1.9142,59.7038,1.591z M59.8248,2.9709h0.8984v4.5703h-0.8984V2.9709z"/>
				<path class="st0" d="M65.1666,4.465c-0.1055-0.4443-0.4746-0.7764-1.0791-0.7764c-0.7549,0-1.2168,0.5791-1.2168,1.5527
					c0,0.9902,0.4658,1.582,1.2168,1.582c0.5713,0,0.9609-0.2598,1.0791-0.751h0.877c-0.1182,0.9189-0.8223,1.5566-1.9512,1.5566
					c-1.3301,0-2.1445-0.8984-2.1445-2.3877c0-1.4648,0.8096-2.3584,2.1396-2.3584c1.1455,0,1.8379,0.667,1.9561,1.582H65.1666z"/>
				<path class="st0" d="M67.0875,1.591c0-0.3271,0.2559-0.5918,0.5713-0.5918c0.3145,0,0.5703,0.2646,0.5703,0.5918
					c0,0.3232-0.2559,0.5869-0.5703,0.5869C67.3434,2.1779,67.0875,1.9142,67.0875,1.591z M67.2096,2.9709h0.8975v4.5703h-0.8975
					V2.9709z"/>
				<path class="st0" d="M69.3317,5.2541c0-1.4727,0.8223-2.3711,2.1572-2.3711c1.3301,0,2.1523,0.8984,2.1523,2.3711
					c0,1.4814-0.8184,2.375-2.1523,2.375C70.15,7.6291,69.3317,6.7355,69.3317,5.2541z M72.7135,5.2541
					c0-0.9902-0.4443-1.5693-1.2246-1.5693c-0.7852,0-1.2256,0.5791-1.2256,1.5693c0,0.999,0.4404,1.5732,1.2256,1.5732
					C72.2692,6.8273,72.7135,6.2482,72.7135,5.2541z"/>
				<path class="st0" d="M74.8444,2.9709h0.8691v0.7266h0.0674c0.2217-0.5078,0.6748-0.8145,1.3633-0.8145
					c1.0195,0,1.582,0.6133,1.582,1.6992v2.959h-0.9023V4.8087c0-0.7334-0.3184-1.0986-0.9863-1.0986
					c-0.667,0-1.0908,0.4443-1.0908,1.1582v2.6729h-0.9023V2.9709z"/>
				<path class="st0" d="M83.9791,6.3068c-0.1973,0.8145-0.9355,1.3223-1.9805,1.3223c-1.3095,0-2.1113-0.8984-2.1113-2.3584
					s0.8184-2.3877,2.1064-2.3877c1.2715,0,2.04,0.8691,2.04,2.3037v0.3145h-3.2275v0.0508
					c0.0293,0.8018,0.4951,1.3096,1.2168,1.3096c0.5459,0,0.9189-0.1973,1.0869-0.5547H83.9791z M80.8063,4.8341h2.3086
					c-0.0215-0.7168-0.458-1.1826-1.125-1.1826S80.8571,4.1212,80.8063,4.8341z"/>
				<path class="st0" d="M87.7106,2.9709h0.8691v0.7266h0.0674c0.2217-0.5078,0.6748-0.8145,1.3633-0.8145
					c1.0195,0,1.582,0.6133,1.582,1.6992v2.959h-0.9023V4.8087c0-0.7334-0.3184-1.0986-0.9863-1.0986
					c-0.667,0-1.0908,0.4443-1.0908,1.1582v2.6729h-0.9023V2.9709z"/>
				<path class="st0" d="M92.7536,5.2541c0-1.4727,0.8223-2.3711,2.1572-2.3711c1.3301,0,2.1523,0.8984,2.1523,2.3711
					c0,1.4814-0.8184,2.375-2.1523,2.375C93.5719,7.6291,92.7536,6.7355,92.7536,5.2541z M96.1364,5.2541
					c0-0.9902-0.4453-1.5693-1.2256-1.5693c-0.7852,0-1.2256,0.5791-1.2256,1.5693c0,0.999,0.4404,1.5732,1.2256,1.5732
					C95.6911,6.8273,96.1364,6.2482,96.1364,5.2541z"/>
			</g>
		</g>
	</g>
	<g>
		<g>
			<linearGradient id="SVGID_1_" gradientUnits="userSpaceOnUse" x1="12.5819" y1="25.0657" x2="12.5819" y2="0.5422">
				<stop  offset="0" style="stop-color:#FA233B"/>
				<stop  offset="1" style="stop-color:#FB5C74"/>
			</linearGradient>
			<path class="st1" d="M25.1635,7.8713c0-0.3005,0.0001-0.6011-0.0017-0.9016c-0.0015-0.2532-0.0045-0.5063-0.0113-0.7594
				c-0.0149-0.5513-0.0474-1.1074-0.1453-1.6525c-0.0995-0.5536-0.2618-1.0688-0.5179-1.5717c-0.2515-0.494-0.58-0.946-0.972-1.338
				c-0.392-0.392-0.8441-0.7206-1.3382-0.9721c-0.5027-0.2559-1.0176-0.4182-1.5709-0.5177
				c-0.5454-0.098-1.1017-0.1305-1.6531-0.1454C18.7,0.0061,18.4469,0.0032,18.1937,0.0016
				c-0.3005-0.0018-0.6011-0.0017-0.9016-0.0017H7.8716c-0.3005,0-0.6011-0.0001-0.9016,0.0017
				C6.7169,0.0032,6.4638,0.0061,6.2107,0.0129C5.6592,0.0278,5.1029,0.0603,4.5575,0.1584
				C4.0042,0.2578,3.4893,0.4201,2.9866,0.676C2.4925,0.9275,2.0404,1.2561,1.6484,1.6481c-0.392,0.392-0.7205,0.844-0.972,1.338
				C0.4204,3.489,0.258,4.0043,0.1586,4.5578C0.0606,5.103,0.0281,5.6591,0.0132,6.2104C0.0064,6.4634,0.0035,6.7165,0.0019,6.9697
				C0.0001,7.2703,0.0002,7.5708,0.0002,7.8713v9.4205c0,0.3005-0.0001,0.6011,0.0017,0.9016
				c0.0015,0.2532,0.0045,0.5063,0.0113,0.7594c0.0149,0.5513,0.0474,1.1074,0.1453,1.6525
				c0.0995,0.5536,0.2618,1.0688,0.5179,1.5717c0.2515,0.494,0.58,0.946,0.972,1.338c0.392,0.392,0.8441,0.7206,1.3382,0.9721
				c0.5027,0.2559,1.0176,0.4182,1.5709,0.5177c0.5454,0.098,1.1017,0.1305,1.6531,0.1454C6.4638,25.157,6.7169,25.16,6.97,25.1615
				c0.3005,0.0018,0.6011,0.0017,0.9016,0.0017h9.4205c0.3005,0,0.6011,0.0001,0.9016-0.0017
				c0.2532-0.0015,0.5063-0.0045,0.7594-0.0113c0.5515-0.0149,1.1078-0.0474,1.6531-0.1454
				c0.5533-0.0994,1.0682-0.2618,1.5709-0.5177c0.4941-0.2515,0.9462-0.5801,1.3382-0.9721c0.392-0.392,0.7205-0.844,0.972-1.338
				c0.2561-0.5029,0.4184-1.0181,0.5179-1.5717c0.0979-0.5452,0.1304-1.1013,0.1453-1.6525
				c0.0068-0.2531,0.0098-0.5062,0.0113-0.7594c0.0018-0.3005,0.0017-0.6011,0.0017-0.9016V7.8713z"/>
		</g>
		<g id="Glyph_17_">
			<g>
				<path class="st2" d="M17.7896,3.8442c-0.0608,0.0052-0.6013,0.1012-0.6662,0.1144L9.6443,5.4676L9.6414,5.4682
					C9.4462,5.5098,9.2937,5.5783,9.1751,5.6779C9.0325,5.7975,8.9534,5.9666,8.9235,6.1635
					c-0.0063,0.0422-0.017,0.127-0.017,0.2531c0,0,0.0001,7.6411,0.0001,9.3605c0,0.2185-0.0175,0.4316-0.1655,0.6124
					c-0.1479,0.1808-0.3315,0.2357-0.5456,0.2788c-0.1628,0.0328-0.3256,0.0656-0.4883,0.0984
					c-0.6179,0.1246-1.0198,0.209-1.3841,0.3503c-0.3481,0.1351-0.6088,0.3072-0.8163,0.5247
					c-0.4114,0.4312-0.5791,1.0164-0.5215,1.5642c0.0492,0.4675,0.2595,0.9147,0.6206,1.2458
					c0.2436,0.2234,0.5484,0.3934,0.908,0.4656c0.3727,0.075,0.7695,0.0486,1.3494-0.0684c0.3089-0.0623,0.5982-0.1596,0.874-0.3224
					c0.2723-0.1608,0.5062-0.3752,0.6884-0.6367c0.1829-0.2623,0.3015-0.5536,0.3666-0.8633
					c0.0671-0.3192,0.0835-0.6083,0.0835-0.9269l0.0001-8.1189c0-0.4351,0.1232-0.5497,0.4739-0.6345
					c0,0,6.217-1.2538,6.5065-1.3102c0.405-0.0778,0.5952,0.0378,0.5952,0.4619l-0.0001,5.5422
					c0,0.2198-0.0024,0.4414-0.1516,0.6236c-0.1479,0.1808-0.3315,0.2357-0.5456,0.2788c-0.1628,0.0328-0.3256,0.0656-0.4883,0.0984
					c-0.6179,0.1246-1.0199,0.209-1.3841,0.3503c-0.3481,0.1351-0.6088,0.3072-0.8164,0.5247
					c-0.4114,0.4312-0.5938,1.0164-0.5362,1.5642c0.0492,0.4675,0.2743,0.9147,0.6354,1.2458
					c0.2436,0.2234,0.5484,0.3887,0.908,0.461c0.3727,0.075,0.7695,0.0485,1.3494-0.0684c0.309-0.0623,0.5982-0.155,0.874-0.3178
					c0.2723-0.1608,0.5061-0.3751,0.6884-0.6367c0.1829-0.2623,0.3015-0.5536,0.3666-0.8633
					c0.067-0.3192,0.0699-0.6083,0.0699-0.9269V4.5055C18.4209,4.0747,18.1938,3.8093,17.7896,3.8442z"/>
			</g>
		</g>
	</g>
</g>
</svg>
