<svg xmlns="http://www.w3.org/2000/svg" viewBox="0 0 5227.73 1567.62"><defs><style>.cls-1{fill:#fff;}</style></defs><g id="Camada_2" data-name="Camada 2"><g id="Camada_2-2" data-name="Camada 2"><circle class="cls-1" cx="783.81" cy="783.81" r="783.81"/><path class="cls-1" d="M2080.6,418.24c24,0,128.65-7.79,255.89,88.23a13.28,13.28,0,0,1,2.72,18.27l-61.13,85.65a13.25,13.25,0,0,1-18.93,2.77,346.08,346.08,0,0,0-52.92-34c-36.13-18.48-84.16-34.08-125.63-34.08s-108,13.55-108,78.83c0,52.55,46.39,72.26,189.68,107.57,93.2,24.22,202,69,202,211.85,0,131.38-109.21,214.31-259.89,214.31-90.78,0-215.26-34.45-294.31-114.07a13.22,13.22,0,0,1-.51-17.82l68.75-80.93a13.23,13.23,0,0,1,19.11-1.16c26.11,24.45,102.46,86.3,206.55,86.3,124,0,119.06-74.73,119.06-85.81,0-23.81-17.24-57.07-78.41-74.31s-214.73-46-272.21-112.91c-35.31-41.88-40.23-88.27-40.23-123.17C1832.21,555,1883.12,418.24,2080.6,418.24Z"/><path class="cls-1" d="M2720.27,589.34c-110.58,0-170.25,81.32-170.25,81.32V614.31A13.27,13.27,0,0,0,2536.75,601H2423.26A13.27,13.27,0,0,0,2410,614.31v681.18a13.27,13.27,0,0,0,13.26,13.27h113.88a13.27,13.27,0,0,0,13.27-13.27V1083.32s55.38,74.35,175.81,74.35c95.46,0,249.33-76.69,249.33-281.85S2830.85,589.34,2720.27,589.34Zm-29.45,447.18c-77.22,0-142.75-67.09-142.75-163,0-58.51,36.66-160.7,141.19-160.7s144.32,84.25,144.32,160.7S2791.45,1036.52,2690.82,1036.52Z"/><path class="cls-1" d="M3303.18,589.34c-178.64,0-289.41,146.85-289.41,285.31,0,151.73,117.8,284.34,290.58,284.34s290.58-136.52,290.58-284.34S3481.82,589.34,3303.18,589.34Zm1.17,447.18c-72.93,0-152.5-61-152.5-162.36s71.76-161.38,152.5-161.38c62,0,150.17,51.29,150.17,161.38S3377.29,1036.52,3304.35,1036.52Z"/><path class="cls-1" d="M3952.21,709.66V612.94a13.27,13.27,0,0,0-13.27-13.27H3809.45v-131a13.27,13.27,0,0,0-13.27-13.26H3684.65a13.27,13.27,0,0,0-13.27,13.26v131h-54.6a13.27,13.27,0,0,0-13.27,13.27v96.72a13.27,13.27,0,0,0,13.27,13.27h54.6v273.8c0,61.63,28.08,159.14,150.55,159.14,56.34,0,104.5-19.71,122.61-28.18a13.28,13.28,0,0,0,7.67-12V1021a10.61,10.61,0,0,0-16.57-8.82c-12.84,8.82-33.71,18.15-64.56,18.15-58.51,0-61.63-39.79-61.63-67.87V722.93h129.49A13.27,13.27,0,0,0,3952.21,709.66Z"/><circle class="cls-1" cx="4079.04" cy="447.09" r="86.17"/><rect class="cls-1" x="4009.7" y="599.67" width="138.31" height="546.83" rx="1.42"/><path class="cls-1" d="M4271.26,722.93h-53.82a13.27,13.27,0,0,1-13.27-13.27V612.94a13.27,13.27,0,0,1,13.27-13.27h53.82v-35.1c0-23.4,3.9-170.84,169.27-170.84,81.91,0,108.63,18.34,108.63,18.34v99.46c0,9.94-3.51,18.13-14,14s-41.54-12.29-66.7-12.29-59.68,14.63-59.68,59.09v27.3h202.7a13.25,13.25,0,0,1,12.37,8.49l141.82,366.73L4893,609.36a13.28,13.28,0,0,1,12.53-8.91h124.59a8.38,8.38,0,0,1,7.86,11.38c-29.22,75.59-194.85,504.09-216.18,558.47-23.4,59.67-63.18,141-177.27,141-66.18,0-108.86-22.23-126.61-33.82a13.27,13.27,0,0,1-4.8-16.74l40.63-87.14a6.73,6.73,0,0,1,9.61-2.93c11.61,7.14,38.08,21,68.89,21,45.34,0,65.52-53.53,65.52-53.53L4524,722.93H4409.62v411.28a13.27,13.27,0,0,1-13.27,13.27H4284.24a13.27,13.27,0,0,1-13.27-13.27Z"/><path class="cls-1" d="M5106.12,637.55h41.41c11.52,0,20.45,3.24,26.4,9.19,5,5,7.77,12.17,7.77,20.71v.26c0,14.62-7.89,23.81-19.41,28.08l22.13,32.35h-23.29l-19.42-29h-15.66v29h-19.93Zm40.12,44c9.7,0,15.27-5.17,15.27-12.8v-.27c0-8.54-5.95-12.93-15.66-12.93h-19.8v26Z"/><path class="cls-1" d="M5142.2,770.51A85.53,85.53,0,1,1,5227.73,685,85.62,85.62,0,0,1,5142.2,770.51Zm0-161.7A76.17,76.17,0,1,0,5218.37,685,76.25,76.25,0,0,0,5142.2,608.81Z"/></g></g></svg>