<svg id="Camada_2" data-name="Camada 2" xmlns="http://www.w3.org/2000/svg" viewBox="0 0 5669.29 1677.89"><defs><style>.cls-1{fill:#54ba5d;}.cls-2{fill:#fff;}</style></defs><circle class="cls-1" cx="1004.59" cy="838.94" r="783.81"/><path class="cls-1" d="M2301.38,473.38c24,0,128.65-7.79,255.89,88.22a13.28,13.28,0,0,1,2.72,18.27l-61.13,85.65a13.24,13.24,0,0,1-18.93,2.77,347.62,347.62,0,0,0-52.92-34c-36.13-18.47-84.16-34.07-125.63-34.07s-108,13.54-108,78.82c0,52.56,46.39,72.26,189.68,107.57,93.2,24.23,202,69,202,211.85,0,131.39-109.21,214.32-259.89,214.32-90.78,0-215.26-34.45-294.31-114.08a13.22,13.22,0,0,1-.51-17.82l68.75-80.92a13.22,13.22,0,0,1,19.11-1.16c26.11,24.45,102.46,86.29,206.55,86.29,124,0,119.06-74.72,119.06-85.8,0-23.82-17.24-57.07-78.41-74.32s-214.73-46-272.21-112.9c-35.31-41.88-40.23-88.27-40.23-123.17C2053,610.1,2103.9,473.38,2301.38,473.38Z"/><path class="cls-1" d="M2941.05,644.47c-110.58,0-170.25,81.33-170.25,81.33V669.44a13.27,13.27,0,0,0-13.27-13.27H2644a13.26,13.26,0,0,0-13.26,13.27v681.19A13.26,13.26,0,0,0,2644,1363.9h113.88a13.27,13.27,0,0,0,13.27-13.27V1138.46s55.38,74.35,175.81,74.35c95.46,0,249.33-76.69,249.33-281.85S3051.63,644.47,2941.05,644.47Zm-29.45,447.18c-77.23,0-142.75-67.08-142.75-163,0-58.51,36.66-160.7,141.19-160.7s144.32,84.25,144.32,160.7S3012.23,1091.65,2911.6,1091.65Z"/><path class="cls-1" d="M3524,644.47c-178.64,0-289.41,146.85-289.41,285.32,0,151.72,117.79,284.33,290.58,284.33s290.58-136.51,290.58-284.33S3702.6,644.47,3524,644.47Zm1.17,447.18c-72.94,0-152.5-61-152.5-162.35s71.76-161.38,152.5-161.38c62,0,150.17,51.29,150.17,161.38S3598.07,1091.65,3525.13,1091.65Z"/><path class="cls-1" d="M4173,764.79V668.08a13.27,13.27,0,0,0-13.26-13.27H4030.23v-131A13.27,13.27,0,0,0,4017,510.52H3905.42a13.27,13.27,0,0,0-13.26,13.27v131h-54.6a13.27,13.27,0,0,0-13.27,13.27v96.71a13.27,13.27,0,0,0,13.27,13.27h54.6v273.81c0,61.62,28.08,159.13,150.55,159.13,56.34,0,104.5-19.7,122.61-28.18a13.26,13.26,0,0,0,7.66-12v-94.71a10.6,10.6,0,0,0-16.56-8.81c-12.84,8.81-33.71,18.14-64.56,18.14-58.51,0-61.63-39.78-61.63-67.87V778.06h129.49A13.27,13.27,0,0,0,4173,764.79Z"/><circle class="cls-1" cx="4299.82" cy="502.23" r="86.17"/><rect class="cls-1" x="4230.48" y="654.81" width="138.31" height="546.83" rx="1.42"/><path class="cls-1" d="M4492,778.06h-53.82A13.27,13.27,0,0,1,4425,764.79V668.08a13.27,13.27,0,0,1,13.27-13.27H4492v-35.1c0-23.41,3.9-170.84,169.27-170.84,81.91,0,108.63,18.33,108.63,18.33v99.46c0,10-3.51,18.14-14,14s-41.54-12.28-66.7-12.28-59.68,14.62-59.68,59.09v27.3h202.7a13.26,13.26,0,0,1,12.37,8.48L4986.41,1030l127.36-365.54a13.27,13.27,0,0,1,12.53-8.9h124.59a8.36,8.36,0,0,1,7.85,11.37c-29.21,75.59-194.84,504.09-216.17,558.47-23.4,59.68-63.18,141-177.27,141-66.18,0-108.86-22.23-126.61-33.81a13.28,13.28,0,0,1-4.8-16.75l40.63-87.13a6.73,6.73,0,0,1,9.61-2.94c11.61,7.15,38.08,21,68.89,21,45.34,0,65.52-53.53,65.52-53.53l-173.76-415.2H4630.4v411.29a13.27,13.27,0,0,1-13.27,13.27H4505a13.28,13.28,0,0,1-13.27-13.28Z"/><path class="cls-1" d="M5326.9,692.69h41.41c11.52,0,20.45,3.24,26.4,9.19,5.05,5,7.77,12.17,7.77,20.7v.26c0,14.63-7.89,23.82-19.41,28.09l22.13,32.35h-23.29l-19.42-29h-15.66v29H5326.9Zm40.12,44c9.7,0,15.27-5.18,15.27-12.81v-.26c0-8.54-5.95-12.94-15.66-12.94h-19.8v26Z"/><path class="cls-1" d="M5363,825.65a85.53,85.53,0,1,1,85.53-85.53A85.62,85.62,0,0,1,5363,825.65Zm0-161.7a76.17,76.17,0,1,0,76.17,76.17A76.25,76.25,0,0,0,5363,664Z"/><path class="cls-2" d="M1319.27,1211.81a51.23,51.23,0,0,1-26.49-7.37c-308.66-185.67-674.55-78.28-678.2-77.18a51.49,51.49,0,0,1-30-98.5c16.69-5.09,412.55-122.34,761.29,87.44a51.49,51.49,0,0,1-26.59,95.61Z"/><path class="cls-2" d="M1408,1000.43a60.59,60.59,0,0,1-30.27-8.11c-387.75-223-778.37-93.17-782.27-91.84A60.84,60.84,0,1,1,556,785.37c18-6.19,447.29-148.76,882.39,101.45A60.86,60.86,0,0,1,1408,1000.43Z"/><path class="cls-2" d="M1504.28,760.55a74.37,74.37,0,0,1-34.75-8.6c-447-234.76-906-94.2-910.63-92.75a74.89,74.89,0,0,1-45.09-142.83c21.15-6.67,523.74-160.48,1025.36,103a74.9,74.9,0,0,1-34.89,141.2Z"/></svg>