<?xml version="1.0" encoding="utf-8"?>
<!-- Generator: Adobe Illustrator 24.3.0, SVG Export Plug-In . SVG Version: 6.00 Build 0)  -->
<svg version="1.1" id="PTBR" xmlns="http://www.w3.org/2000/svg" xmlns:xlink="http://www.w3.org/1999/xlink" x="0px" y="0px"
	 width="124.119px" height="26.778px" viewBox="0 0 124.119 26.778" enable-background="new 0 0 124.119 26.778"
	 xml:space="preserve">
<g>
	<g>
		<path fill="#FFFFFF" d="M34.308,5.934H32l-0.559,1.607h-0.965l2.187-6.056h1.011l2.187,6.056h-0.999L34.308,5.934z M32.239,5.145
			h1.829l-0.877-2.56H33.12L32.239,5.145z"/>
		<path fill="#FFFFFF" d="M38.497,2.883c1.028,0,1.699,0.479,1.788,1.284h-0.864c-0.084-0.336-0.412-0.55-0.924-0.55
			c-0.503,0-0.885,0.239-0.885,0.596c0,0.273,0.23,0.445,0.726,0.559l0.76,0.176c0.868,0.202,1.275,0.575,1.275,1.246
			c0,0.86-0.802,1.436-1.893,1.436c-1.087,0-1.796-0.491-1.876-1.301h0.902c0.113,0.353,0.449,0.57,0.995,0.57
			c0.562,0,0.961-0.251,0.961-0.616c0-0.273-0.215-0.449-0.672-0.559L37.994,5.54c-0.869-0.205-1.271-0.596-1.271-1.275
			C36.723,3.455,37.465,2.883,38.497,2.883z"/>
		<path fill="#FFFFFF" d="M43.167,2.883c1.027,0,1.699,0.479,1.787,1.284H44.09c-0.084-0.336-0.411-0.55-0.923-0.55
			c-0.504,0-0.886,0.239-0.886,0.596c0,0.273,0.23,0.445,0.726,0.559l0.76,0.176c0.869,0.202,1.275,0.575,1.275,1.246
			c0,0.86-0.801,1.436-1.892,1.436c-1.087,0-1.797-0.491-1.876-1.301h0.902c0.113,0.353,0.448,0.57,0.994,0.57
			c0.562,0,0.961-0.251,0.961-0.616c0-0.273-0.214-0.449-0.671-0.559L42.663,5.54c-0.868-0.205-1.271-0.596-1.271-1.275
			C41.392,3.455,42.135,2.883,43.167,2.883z"/>
		<path fill="#FFFFFF" d="M46.133,1.621c0-0.314,0.248-0.554,0.584-0.554c0.335,0,0.583,0.239,0.583,0.554
			c0,0.311-0.248,0.55-0.583,0.55C46.381,2.17,46.133,1.931,46.133,1.621z M46.268,2.971h0.897v4.57h-0.897V2.971z"/>
		<path fill="#FFFFFF" d="M50.286,2.883c1.028,0,1.699,0.479,1.788,1.284H51.21c-0.084-0.336-0.412-0.55-0.924-0.55
			c-0.503,0-0.885,0.239-0.885,0.596c0,0.273,0.23,0.445,0.726,0.559l0.76,0.176c0.868,0.202,1.275,0.575,1.275,1.246
			c0,0.86-0.802,1.436-1.893,1.436c-1.087,0-1.796-0.491-1.876-1.301h0.902c0.113,0.353,0.449,0.57,0.995,0.57
			c0.562,0,0.961-0.251,0.961-0.616c0-0.273-0.215-0.449-0.672-0.559L49.783,5.54c-0.869-0.205-1.271-0.596-1.271-1.275
			C48.512,3.455,49.254,2.883,50.286,2.883z"/>
		<path fill="#FFFFFF" d="M54.558,1.834v1.158h0.991v0.76h-0.991v2.35c0,0.479,0.197,0.688,0.646,0.688
			c0.139,0,0.219-0.009,0.345-0.021V7.52c-0.147,0.025-0.315,0.047-0.491,0.047c-1.003,0-1.401-0.353-1.401-1.234v-2.58H52.93v-0.76
			h0.727V1.834H54.558z"/>
		<path fill="#FFFFFF" d="M56.473,6.249c0-0.822,0.613-1.296,1.699-1.363l1.238-0.071V4.419c0-0.482-0.319-0.756-0.936-0.756
			c-0.504,0-0.852,0.186-0.953,0.508h-0.872c0.092-0.784,0.83-1.288,1.867-1.288c1.146,0,1.792,0.571,1.792,1.536v3.122h-0.869
			V6.899h-0.071c-0.272,0.458-0.772,0.718-1.372,0.718C57.115,7.617,56.473,7.084,56.473,6.249z M59.41,5.859V5.477l-1.116,0.071
			c-0.63,0.042-0.915,0.256-0.915,0.658c0,0.411,0.357,0.65,0.848,0.65C58.906,6.857,59.41,6.425,59.41,5.859z"/>
		<path fill="#FFFFFF" d="M64.189,2.971h0.869v0.727h0.066c0.223-0.508,0.676-0.814,1.364-0.814c1.02,0,1.582,0.613,1.582,1.699
			v2.959h-0.902V4.809c0-0.733-0.319-1.099-0.986-1.099s-1.091,0.444-1.091,1.158v2.673h-0.902V2.971z"/>
		<path fill="#FFFFFF" d="M69.231,5.254c0-1.473,0.822-2.371,2.156-2.371c1.33,0,2.152,0.898,2.152,2.371
			c0,1.481-0.817,2.375-2.152,2.375C70.049,7.629,69.231,6.736,69.231,5.254z M72.613,5.254c0-0.99-0.445-1.569-1.226-1.569
			c-0.784,0-1.226,0.579-1.226,1.569c0,0.999,0.441,1.573,1.226,1.573C72.168,6.828,72.613,6.249,72.613,5.254z"/>
	</g>
	<g>
		<path fill="#FFFFFF" d="M38.192,20.426h-4.733l-1.137,3.356h-2.005l4.483-12.419h2.083l4.483,12.419h-2.039L38.192,20.426z
			 M33.949,18.877h3.752l-1.85-5.448H35.8L33.949,18.877z"/>
		<path fill="#FFFFFF" d="M51.05,19.256c0,2.813-1.506,4.621-3.778,4.621c-1.29,0-2.314-0.577-2.849-1.584H44.38v4.484h-1.858
			V14.729h1.799v1.506h0.034c0.517-0.972,1.618-1.601,2.883-1.601C49.535,14.634,51.05,16.451,51.05,19.256z M49.14,19.256
			c0-1.833-0.947-3.038-2.393-3.038c-1.42,0-2.375,1.23-2.375,3.038c0,1.824,0.955,3.046,2.375,3.046
			C48.192,22.302,49.14,21.106,49.14,19.256z"/>
		<path fill="#FFFFFF" d="M61.015,19.256c0,2.813-1.506,4.621-3.778,4.621c-1.29,0-2.314-0.577-2.849-1.584h-0.043v4.484h-1.858
			V14.729h1.799v1.506h0.034c0.517-0.972,1.618-1.601,2.883-1.601C59.5,14.634,61.015,16.451,61.015,19.256z M59.105,19.256
			c0-1.833-0.947-3.038-2.393-3.038c-1.42,0-2.375,1.23-2.375,3.038c0,1.824,0.955,3.046,2.375,3.046
			C58.157,22.302,59.105,21.106,59.105,19.256z"/>
		<path fill="#FFFFFF" d="M62.52,11.364h1.859v12.419H62.52V11.364z"/>
		<path fill="#FFFFFF" d="M74.055,21.124c-0.25,1.644-1.851,2.771-3.898,2.771c-2.634,0-4.269-1.765-4.269-4.596
			c0-2.84,1.644-4.682,4.19-4.682c2.505,0,4.08,1.721,4.08,4.466v0.637h-6.395v0.112c0,1.549,0.973,2.564,2.436,2.564
			c1.032,0,1.842-0.49,2.091-1.273H74.055z M67.772,18.421h4.526c-0.043-1.386-0.93-2.298-2.221-2.298
			C68.796,16.124,67.867,17.053,67.772,18.421z"/>
		<path fill="#FFFFFF" d="M90.201,23.783v-9.14h-0.061l-3.743,9.045h-1.429l-3.753-9.045h-0.06v9.14H79.4V11.364h2.229l4.019,9.803
			h0.068l4.011-9.803h2.237v12.419H90.201z"/>
		<path fill="#FFFFFF" d="M101.875,23.783h-1.781v-1.558h-0.043c-0.517,1.084-1.421,1.661-2.806,1.661
			c-1.971,0-3.176-1.273-3.176-3.348v-5.81h1.858v5.448c0,1.377,0.654,2.108,1.937,2.108c1.343,0,2.151-0.93,2.151-2.341v-5.216
			h1.859V23.783z"/>
		<path fill="#FFFFFF" d="M107.169,14.626c2.006,0,3.442,1.109,3.485,2.71h-1.747c-0.077-0.8-0.757-1.29-1.79-1.29
			c-1.007,0-1.678,0.464-1.678,1.17c0,0.542,0.447,0.903,1.386,1.136l1.523,0.354c1.824,0.438,2.513,1.109,2.513,2.436
			c0,1.635-1.549,2.754-3.761,2.754c-2.135,0-3.571-1.094-3.709-2.746h1.841c0.13,0.869,0.826,1.334,1.954,1.334
			c1.11,0,1.807-0.456,1.807-1.179c0-0.56-0.344-0.86-1.29-1.102l-1.618-0.396c-1.635-0.396-2.461-1.231-2.461-2.487
			C103.624,15.719,105.061,14.626,107.169,14.626z"/>
		<path fill="#FFFFFF" d="M112.315,12.345c0-0.594,0.481-1.067,1.075-1.067c0.603,0,1.085,0.474,1.085,1.067
			c0,0.585-0.482,1.059-1.085,1.059C112.797,13.404,112.315,12.93,112.315,12.345z M112.462,14.729h1.858v9.054h-1.858V14.729z"/>
		<path fill="#FFFFFF" d="M122.329,17.844c-0.163-0.955-0.912-1.669-2.134-1.669c-1.429,0-2.376,1.196-2.376,3.081
			c0,1.928,0.956,3.089,2.393,3.089c1.153,0,1.911-0.576,2.117-1.626h1.79c-0.206,1.901-1.729,3.176-3.924,3.176
			c-2.582,0-4.269-1.765-4.269-4.639c0-2.814,1.687-4.639,4.251-4.639c2.323,0,3.77,1.463,3.925,3.227H122.329z"/>
	</g>
	<g>
		<g>
			<linearGradient id="SVGID_1_" gradientUnits="userSpaceOnUse" x1="12.5819" y1="25.0657" x2="12.5819" y2="0.5422">
				<stop  offset="0" style="stop-color:#FA233B"/>
				<stop  offset="1" style="stop-color:#FB5C74"/>
			</linearGradient>
			<path fill-rule="evenodd" clip-rule="evenodd" fill="url(#SVGID_1_)" d="M25.164,7.871c0-0.301,0-0.601-0.002-0.902
				c-0.002-0.253-0.004-0.506-0.011-0.759c-0.015-0.551-0.047-1.107-0.145-1.653c-0.099-0.554-0.262-1.069-0.518-1.572
				c-0.252-0.494-0.58-0.946-0.972-1.338c-0.392-0.392-0.844-0.721-1.338-0.972c-0.503-0.256-1.018-0.418-1.571-0.518
				c-0.545-0.098-1.102-0.131-1.653-0.145c-0.253-0.007-0.506-0.01-0.759-0.011C17.893,0,17.593,0,17.292,0h-9.42
				C7.571,0,7.271,0,6.97,0.002C6.717,0.003,6.464,0.006,6.211,0.013C5.659,0.028,5.103,0.06,4.558,0.158
				C4.004,0.258,3.489,0.42,2.987,0.676C2.493,0.928,2.04,1.256,1.648,1.648C1.256,2.04,0.928,2.492,0.676,2.986
				C0.42,3.489,0.258,4.004,0.159,4.558C0.061,5.103,0.028,5.659,0.013,6.21C0.006,6.463,0.003,6.717,0.002,6.97
				C0,7.27,0,7.571,0,7.871v9.42c0,0.301,0,0.601,0.002,0.902c0.002,0.253,0.004,0.506,0.011,0.759
				c0.015,0.551,0.047,1.107,0.145,1.653c0.099,0.554,0.262,1.069,0.518,1.572c0.252,0.494,0.58,0.946,0.972,1.338
				c0.392,0.392,0.844,0.721,1.338,0.972c0.503,0.256,1.018,0.418,1.571,0.518c0.545,0.098,1.102,0.131,1.653,0.145
				c0.253,0.007,0.506,0.01,0.759,0.011c0.301,0.002,0.601,0.002,0.902,0.002h9.42c0.301,0,0.601,0,0.902-0.002
				c0.253-0.002,0.506-0.004,0.759-0.011c0.551-0.015,1.108-0.047,1.653-0.145c0.553-0.099,1.068-0.262,1.571-0.518
				c0.494-0.252,0.946-0.58,1.338-0.972c0.392-0.392,0.72-0.844,0.972-1.338c0.256-0.503,0.418-1.018,0.518-1.572
				c0.098-0.545,0.13-1.101,0.145-1.653c0.007-0.253,0.01-0.506,0.011-0.759c0.002-0.301,0.002-0.601,0.002-0.902V7.871z"/>
		</g>
		<g id="Glyph_17_">
			<g>
				<path fill-rule="evenodd" clip-rule="evenodd" fill="#FFFFFF" d="M17.79,3.844c-0.061,0.005-0.601,0.101-0.666,0.114
					L9.644,5.468L9.641,5.468c-0.195,0.042-0.348,0.11-0.466,0.21c-0.143,0.12-0.222,0.289-0.252,0.486
					C8.917,6.206,8.906,6.291,8.906,6.417c0,0,0,7.641,0,9.36c0,0.219-0.017,0.432-0.165,0.612
					c-0.148,0.181-0.332,0.236-0.546,0.279c-0.163,0.033-0.326,0.066-0.488,0.098c-0.618,0.125-1.02,0.209-1.384,0.35
					c-0.348,0.135-0.609,0.307-0.816,0.525c-0.411,0.431-0.579,1.016-0.521,1.564c0.049,0.467,0.26,0.915,0.621,1.246
					c0.244,0.223,0.548,0.393,0.908,0.466c0.373,0.075,0.77,0.049,1.349-0.068c0.309-0.062,0.598-0.16,0.874-0.322
					c0.272-0.161,0.506-0.375,0.688-0.637c0.183-0.262,0.302-0.554,0.367-0.863c0.067-0.319,0.083-0.608,0.083-0.927l0-8.119
					c0-0.435,0.123-0.55,0.474-0.634c0,0,6.217-1.254,6.506-1.31c0.405-0.078,0.595,0.038,0.595,0.462l0,5.542
					c0,0.22-0.002,0.441-0.151,0.624c-0.148,0.181-0.331,0.236-0.546,0.279c-0.163,0.033-0.326,0.066-0.488,0.098
					c-0.618,0.125-1.02,0.209-1.384,0.35c-0.348,0.135-0.609,0.307-0.816,0.525c-0.411,0.431-0.594,1.016-0.536,1.564
					c0.049,0.468,0.274,0.915,0.635,1.246c0.244,0.223,0.548,0.389,0.908,0.461c0.373,0.075,0.77,0.049,1.349-0.068
					c0.309-0.062,0.598-0.155,0.874-0.318c0.272-0.161,0.506-0.375,0.688-0.637c0.183-0.262,0.302-0.554,0.367-0.863
					c0.067-0.319,0.07-0.608,0.07-0.927V4.505C18.421,4.075,18.194,3.809,17.79,3.844z"/>
			</g>
		</g>
	</g>
</g>
<g>
</g>
<g>
</g>
<g>
</g>
<g>
</g>
<g>
</g>
<g>
</g>
<g>
</g>
<g>
</g>
<g>
</g>
<g>
</g>
<g>
</g>
<g>
</g>
<g>
</g>
<g>
</g>
<g>
</g>
<g>
</g>
</svg>
