<?xml version="1.0" encoding="utf-8"?>
<!-- Generator: Adobe Illustrator 24.3.0, SVG Export Plug-In . SVG Version: 6.00 Build 0)  -->
<svg version="1.1" id="PTBR" xmlns="http://www.w3.org/2000/svg" xmlns:xlink="http://www.w3.org/1999/xlink" x="0px" y="0px"
	 width="124.089px" height="26.778px" viewBox="0 0 124.089 26.778" enable-background="new 0 0 124.089 26.778"
	 xml:space="preserve">
<g>
	<g>
		<path d="M34.278,5.934H31.97l-0.558,1.607h-0.965l2.186-6.056h1.011l2.186,6.056h-0.999L34.278,5.934z M32.209,5.145h1.83
			l-0.877-2.56H33.09L32.209,5.145z"/>
		<path d="M38.467,2.884c1.028,0,1.699,0.479,1.788,1.284h-0.864c-0.084-0.336-0.412-0.55-0.923-0.55
			c-0.503,0-0.885,0.239-0.885,0.596c0,0.273,0.23,0.445,0.726,0.559l0.76,0.176c0.869,0.202,1.275,0.575,1.275,1.246
			c0,0.86-0.801,1.436-1.892,1.436c-1.087,0-1.796-0.491-1.876-1.301h0.902c0.113,0.353,0.449,0.57,0.995,0.57
			c0.562,0,0.961-0.251,0.961-0.616c0-0.273-0.214-0.449-0.672-0.559L37.964,5.54c-0.869-0.205-1.271-0.596-1.271-1.275
			C36.692,3.455,37.435,2.884,38.467,2.884z"/>
		<path d="M43.137,2.884c1.028,0,1.699,0.479,1.788,1.284H44.06c-0.084-0.336-0.412-0.55-0.923-0.55
			c-0.503,0-0.885,0.239-0.885,0.596c0,0.273,0.23,0.445,0.726,0.559l0.76,0.176c0.869,0.202,1.275,0.575,1.275,1.246
			c0,0.86-0.801,1.436-1.892,1.436c-1.087,0-1.796-0.491-1.876-1.301h0.902c0.113,0.353,0.449,0.57,0.995,0.57
			c0.562,0,0.96-0.251,0.96-0.616c0-0.273-0.214-0.449-0.671-0.559L42.633,5.54c-0.869-0.205-1.271-0.596-1.271-1.275
			C41.362,3.455,42.105,2.884,43.137,2.884z"/>
		<path d="M46.103,1.621c0-0.314,0.248-0.554,0.583-0.554c0.335,0,0.583,0.239,0.583,0.554c0,0.311-0.248,0.55-0.583,0.55
			C46.351,2.171,46.103,1.931,46.103,1.621z M46.237,2.971h0.898v4.57h-0.898V2.971z"/>
		<path d="M50.256,2.884c1.028,0,1.699,0.479,1.788,1.284H51.18c-0.084-0.336-0.412-0.55-0.923-0.55
			c-0.503,0-0.885,0.239-0.885,0.596c0,0.273,0.23,0.445,0.726,0.559l0.76,0.176c0.869,0.202,1.275,0.575,1.275,1.246
			c0,0.86-0.801,1.436-1.892,1.436c-1.087,0-1.796-0.491-1.876-1.301h0.902c0.113,0.353,0.449,0.57,0.995,0.57
			c0.562,0,0.961-0.251,0.961-0.616c0-0.273-0.214-0.449-0.672-0.559L49.753,5.54c-0.869-0.205-1.271-0.596-1.271-1.275
			C48.482,3.455,49.224,2.884,50.256,2.884z"/>
		<path d="M54.528,1.835v1.158h0.991v0.76h-0.991v2.35c0,0.479,0.197,0.688,0.646,0.688c0.138,0,0.218-0.009,0.344-0.021V7.52
			c-0.147,0.025-0.315,0.047-0.491,0.047c-1.003,0-1.401-0.353-1.401-1.234v-2.58H52.9v-0.76h0.726V1.835H54.528z"/>
		<path d="M56.443,6.249c0-0.822,0.613-1.296,1.699-1.363l1.238-0.071V4.42c0-0.482-0.319-0.756-0.936-0.756
			c-0.503,0-0.852,0.186-0.953,0.508h-0.873c0.092-0.784,0.831-1.288,1.867-1.288c1.146,0,1.792,0.571,1.792,1.536v3.122H59.41
			V6.899h-0.072c-0.272,0.458-0.772,0.718-1.372,0.718C57.085,7.617,56.443,7.084,56.443,6.249z M59.38,5.859V5.477l-1.116,0.071
			c-0.629,0.042-0.915,0.256-0.915,0.658c0,0.411,0.357,0.65,0.848,0.65C58.877,6.857,59.38,6.426,59.38,5.859z"/>
		<path d="M64.159,2.971h0.869v0.727h0.067c0.222-0.508,0.676-0.814,1.364-0.814c1.02,0,1.582,0.613,1.582,1.699v2.959h-0.902V4.809
			c0-0.733-0.319-1.099-0.986-1.099c-0.667,0-1.091,0.444-1.091,1.158v2.673h-0.902V2.971z"/>
		<path d="M69.201,5.255c0-1.473,0.822-2.371,2.157-2.371c1.33,0,2.152,0.898,2.152,2.371c0,1.481-0.818,2.375-2.152,2.375
			C70.019,7.63,69.201,6.736,69.201,5.255z M72.583,5.255c0-0.99-0.445-1.569-1.225-1.569c-0.785,0-1.226,0.579-1.226,1.569
			c0,0.999,0.441,1.573,1.226,1.573C72.138,6.828,72.583,6.249,72.583,5.255z"/>
	</g>
	<g>
		<path d="M38.162,20.427h-4.733l-1.137,3.356h-2.005l4.483-12.419h2.083l4.483,12.419h-2.039L38.162,20.427z M33.919,18.878h3.752
			l-1.85-5.448H35.77L33.919,18.878z"/>
		<path d="M51.02,19.257c0,2.813-1.506,4.621-3.778,4.621c-1.29,0-2.314-0.577-2.849-1.584H44.35v4.484h-1.858V14.729h1.799v1.506
			h0.034c0.517-0.972,1.618-1.601,2.883-1.601C49.505,14.635,51.02,16.451,51.02,19.257z M49.109,19.257
			c0-1.833-0.947-3.038-2.393-3.038c-1.42,0-2.375,1.23-2.375,3.038c0,1.824,0.955,3.046,2.375,3.046
			C48.162,22.302,49.109,21.106,49.109,19.257z"/>
		<path d="M60.984,19.257c0,2.813-1.506,4.621-3.778,4.621c-1.29,0-2.314-0.577-2.849-1.584h-0.043v4.484h-1.858V14.729h1.799v1.506
			h0.034c0.517-0.972,1.618-1.601,2.883-1.601C59.47,14.635,60.984,16.451,60.984,19.257z M59.074,19.257
			c0-1.833-0.947-3.038-2.393-3.038c-1.42,0-2.375,1.23-2.375,3.038c0,1.824,0.955,3.046,2.375,3.046
			C58.127,22.302,59.074,21.106,59.074,19.257z"/>
		<path d="M62.489,11.364h1.859v12.419h-1.859V11.364z"/>
		<path d="M74.025,21.124c-0.25,1.644-1.851,2.771-3.898,2.771c-2.634,0-4.269-1.765-4.269-4.596c0-2.84,1.644-4.682,4.19-4.682
			c2.505,0,4.08,1.721,4.08,4.466v0.637h-6.395v0.112c0,1.549,0.973,2.564,2.436,2.564c1.032,0,1.842-0.49,2.091-1.273H74.025z
			 M67.742,18.422h4.526c-0.043-1.386-0.93-2.298-2.221-2.298C68.766,16.124,67.837,17.053,67.742,18.422z"/>
		<path d="M90.171,23.783v-9.14H90.11l-3.743,9.045h-1.429l-3.753-9.045h-0.06v9.14H79.37V11.364H81.6l4.019,9.803h0.068
			l4.011-9.803h2.237v12.419H90.171z"/>
		<path d="M101.845,23.783h-1.781v-1.558h-0.043c-0.517,1.084-1.421,1.661-2.806,1.661c-1.971,0-3.176-1.273-3.176-3.348v-5.81
			h1.858v5.448c0,1.377,0.654,2.108,1.937,2.108c1.343,0,2.151-0.93,2.151-2.341v-5.216h1.859V23.783z"/>
		<path d="M107.139,14.627c2.006,0,3.442,1.109,3.485,2.71h-1.747c-0.077-0.8-0.757-1.29-1.79-1.29c-1.007,0-1.678,0.464-1.678,1.17
			c0,0.542,0.447,0.903,1.386,1.136l1.523,0.354c1.824,0.438,2.513,1.109,2.513,2.436c0,1.635-1.549,2.754-3.761,2.754
			c-2.135,0-3.571-1.094-3.709-2.746h1.841c0.13,0.869,0.826,1.334,1.954,1.334c1.11,0,1.807-0.456,1.807-1.179
			c0-0.56-0.344-0.86-1.29-1.102l-1.618-0.396c-1.635-0.396-2.461-1.231-2.461-2.487C103.594,15.719,105.03,14.627,107.139,14.627z"
			/>
		<path d="M112.285,12.345c0-0.594,0.481-1.067,1.075-1.067c0.603,0,1.085,0.474,1.085,1.067c0,0.585-0.482,1.059-1.085,1.059
			C112.767,13.404,112.285,12.93,112.285,12.345z M112.432,14.729h1.858v9.054h-1.858V14.729z"/>
		<path d="M122.299,17.844c-0.163-0.955-0.912-1.669-2.134-1.669c-1.429,0-2.376,1.196-2.376,3.081c0,1.928,0.956,3.089,2.393,3.089
			c1.153,0,1.911-0.576,2.117-1.626h1.79c-0.206,1.901-1.729,3.176-3.924,3.176c-2.582,0-4.269-1.765-4.269-4.639
			c0-2.814,1.687-4.639,4.251-4.639c2.323,0,3.77,1.463,3.925,3.227H122.299z"/>
	</g>
	<g>
		<g>
			<linearGradient id="SVGID_1_" gradientUnits="userSpaceOnUse" x1="12.6" y1="25.0701" x2="12.6" y2="0.5459">
				<stop  offset="0" style="stop-color:#FA233B"/>
				<stop  offset="1" style="stop-color:#FB5C74"/>
			</linearGradient>
			<path fill-rule="evenodd" clip-rule="evenodd" fill="url(#SVGID_1_)" d="M25.182,7.875c0-0.301,0-0.601-0.002-0.902
				c-0.002-0.253-0.004-0.506-0.011-0.759c-0.015-0.551-0.047-1.107-0.145-1.653c-0.099-0.554-0.262-1.069-0.518-1.572
				c-0.252-0.494-0.58-0.946-0.972-1.338C23.142,1.26,22.69,0.931,22.196,0.68c-0.503-0.256-1.018-0.418-1.571-0.518
				c-0.545-0.098-1.102-0.131-1.653-0.145c-0.253-0.007-0.506-0.01-0.759-0.011c-0.301-0.002-0.601-0.002-0.902-0.002H7.89
				c-0.301,0-0.601,0-0.902,0.002C6.735,0.007,6.482,0.01,6.229,0.017C5.677,0.032,5.121,0.064,4.575,0.162
				C4.022,0.261,3.507,0.424,3.004,0.68C2.51,0.931,2.058,1.26,1.666,1.652C1.274,2.044,0.946,2.496,0.694,2.99
				C0.438,3.493,0.276,4.008,0.176,4.562c-0.098,0.545-0.13,1.101-0.145,1.653C0.024,6.467,0.021,6.72,0.02,6.974
				C0.018,7.274,0.018,7.575,0.018,7.875v9.421c0,0.301,0,0.601,0.002,0.902c0.002,0.253,0.004,0.506,0.011,0.759
				c0.015,0.551,0.047,1.107,0.145,1.653c0.099,0.554,0.262,1.069,0.518,1.572c0.252,0.494,0.58,0.946,0.972,1.338
				c0.392,0.392,0.844,0.721,1.338,0.972c0.503,0.256,1.018,0.418,1.571,0.518c0.545,0.098,1.102,0.131,1.653,0.145
				c0.253,0.007,0.506,0.01,0.759,0.011c0.301,0.002,0.601,0.002,0.902,0.002h9.421c0.301,0,0.601,0,0.902-0.002
				c0.253-0.002,0.506-0.004,0.759-0.011c0.551-0.015,1.108-0.047,1.653-0.145c0.553-0.099,1.068-0.262,1.571-0.518
				c0.494-0.252,0.946-0.58,1.338-0.972c0.392-0.392,0.721-0.844,0.972-1.338c0.256-0.503,0.418-1.018,0.518-1.572
				c0.098-0.545,0.13-1.101,0.145-1.653c0.007-0.253,0.01-0.506,0.011-0.759c0.002-0.301,0.002-0.601,0.002-0.902V7.875z"/>
		</g>
		<g id="Glyph_15_">
			<g>
				<path fill-rule="evenodd" clip-rule="evenodd" fill="#FFFFFF" d="M17.808,3.848c-0.061,0.005-0.601,0.101-0.666,0.114
					L9.662,5.471L9.659,5.472c-0.195,0.042-0.348,0.11-0.466,0.21C9.051,5.801,8.971,5.97,8.942,6.167
					C8.935,6.21,8.925,6.294,8.925,6.42c0,0,0,7.641,0,9.361c0,0.218-0.017,0.432-0.165,0.612c-0.148,0.181-0.332,0.236-0.546,0.279
					c-0.163,0.033-0.326,0.066-0.488,0.098c-0.618,0.125-1.02,0.209-1.384,0.35c-0.348,0.135-0.609,0.307-0.816,0.525
					c-0.411,0.431-0.579,1.016-0.521,1.564c0.049,0.467,0.26,0.915,0.621,1.246c0.244,0.223,0.548,0.393,0.908,0.466
					c0.373,0.075,0.77,0.049,1.349-0.068c0.309-0.062,0.598-0.16,0.874-0.322c0.272-0.161,0.506-0.375,0.688-0.637
					c0.183-0.262,0.302-0.554,0.367-0.863c0.067-0.319,0.084-0.608,0.084-0.927V9.985c0-0.435,0.123-0.55,0.474-0.634
					c0,0,6.217-1.254,6.507-1.31c0.405-0.078,0.595,0.038,0.595,0.462l0,5.542c0,0.22-0.002,0.441-0.152,0.624
					c-0.148,0.181-0.331,0.236-0.546,0.279c-0.163,0.033-0.326,0.066-0.488,0.098c-0.618,0.125-1.02,0.209-1.384,0.35
					c-0.348,0.135-0.609,0.307-0.816,0.525c-0.411,0.431-0.594,1.016-0.536,1.564c0.049,0.468,0.274,0.915,0.635,1.246
					c0.244,0.223,0.548,0.389,0.908,0.461c0.373,0.075,0.77,0.049,1.349-0.068c0.309-0.062,0.598-0.155,0.874-0.318
					c0.272-0.161,0.506-0.375,0.689-0.637c0.183-0.262,0.301-0.554,0.367-0.863c0.067-0.319,0.07-0.608,0.07-0.927V4.509
					C18.439,4.078,18.212,3.813,17.808,3.848z"/>
			</g>
		</g>
	</g>
</g>
<g>
</g>
<g>
</g>
<g>
</g>
<g>
</g>
<g>
</g>
<g>
</g>
<g>
</g>
<g>
</g>
<g>
</g>
<g>
</g>
<g>
</g>
<g>
</g>
<g>
</g>
<g>
</g>
<g>
</g>
</svg>
