<svg id="Artwork" xmlns="http://www.w3.org/2000/svg" xmlns:xlink="http://www.w3.org/1999/xlink" width="124.09554" height="26.77672" viewBox="0 0 124.09554 26.77672">
  <defs>
    <linearGradient id="linear-gradient" x1="12.5817" y1="25.0658" x2="12.5817" y2="0.54238" gradientUnits="userSpaceOnUse">
      <stop offset="0" stop-color="#fa233b"/>
      <stop offset="1" stop-color="#fb5c74"/>
    </linearGradient>
  </defs>
  <g>
    <g>
      <path d="M38.16689,20.42059h-4.737l-1.13688,3.359H30.28623L34.77347,11.352h2.08428L41.345,23.77956H39.30377ZM33.9208,18.8703H37.676L35.82422,13.419h-.05168Z" transform="translate(-0.00007 -0.00006)" style="fill: #fff"/>
      <path d="M51.0257,19.24926c0,2.81694-1.50723,4.62561-3.781,4.62561a3.07062,3.07062,0,0,1-2.85081-1.58474h-.04307v4.48666H42.49048V14.719h1.80006v1.5078H44.325a3.21109,3.21109,0,0,1,2.88527-1.602C49.50986,14.62479,51.0257,16.4415,51.0257,19.24926Zm-1.912,0c0-1.83394-.94741-3.03973-2.39435-3.03973-1.4211,0-2.37711,1.231-2.37711,3.03973,0,1.8259.956,3.04891,2.37711,3.04891C48.16627,22.29817,49.11368,21.10157,49.11368,19.24926Z" transform="translate(-0.00007 -0.00006)" style="fill: #fff"/>
      <path d="M60.99064,19.24926c0,2.81694-1.50723,4.62561-3.781,4.62561a3.07065,3.07065,0,0,1-2.85082-1.58474h-.04306v4.48666H52.45542V14.719h1.80006v1.5078h.03445a3.21109,3.21109,0,0,1,2.88527-1.602C59.4748,14.62479,60.99064,16.4415,60.99064,19.24926Zm-1.912,0c0-1.83394-.9474-3.03973-2.39434-3.03973-1.4211,0-2.37711,1.231-2.37711,3.03973,0,1.8259.956,3.04891,2.37711,3.04891C58.13121,22.29817,59.07861,21.10157,59.07861,19.24926Z" transform="translate(-0.00007 -0.00006)" style="fill: #fff"/>
      <path d="M62.48926,11.352h1.86035V23.77956H62.48926Z" transform="translate(-0.00007 -0.00006)" style="fill: #fff"/>
      <path d="M74.03033,21.11879c-.24977,1.64446-1.85174,2.77331-3.90157,2.77331-2.6355,0-4.27192-1.76619-4.27192-4.59921,0-2.8422,1.645-4.68533,4.1944-4.68533,2.50631,0,4.08244,1.72255,4.08244,4.46944v.63734H67.73442v.11254a2.35975,2.35975,0,0,0,2.4374,2.5666,2.05156,2.05156,0,0,0,2.0929-1.27469Zm-6.2873-2.7044h4.5303a2.179,2.179,0,0,0-2.22209-2.30017A2.29432,2.29432,0,0,0,67.743,18.41439Z" transform="translate(-0.00007 -0.00006)" style="fill: #fff"/>
      <path d="M90.17864,23.77956V14.63283h-.05971l-3.74712,9.05256H84.94209l-3.75515-9.05256h-.05971v9.14673h-1.757V11.352h2.23012l4.02273,9.80933h.0689L89.70551,11.352h2.23932V23.77956Z" transform="translate(-0.00007 -0.00006)" style="fill: #fff"/>
      <path d="M101.85062,23.77956h-1.78226V22.22122h-.04364A2.83025,2.83025,0,0,1,97.217,23.88291a3.02084,3.02084,0,0,1-3.17753-3.34978V14.719H95.8998v5.45243c0,1.378.65456,2.10955,1.93729,2.10955a2.09867,2.09867,0,0,0,2.15318-2.34267V14.719h1.86035Z" transform="translate(-0.00007 -0.00006)" style="fill: #fff"/>
      <path d="M107.14114,14.6156c2.0062,0,3.4451,1.11162,3.48759,2.71359h-1.74781c-.07809-.80156-.75793-1.29191-1.79145-1.29191-1.00827,0-1.68006.46509-1.68006,1.17133,0,.542.44786.90376,1.38722,1.13688l1.52388.35255c1.8259.43982,2.51492,1.11162,2.51492,2.438,0,1.63642-1.55029,2.75608-3.76319,2.75608-2.136,0-3.57486-1.0944-3.71266-2.748h1.84312c.12977.87046.82682,1.33555,1.95567,1.33555,1.11047,0,1.80867-.45705,1.80867-1.18052,0-.55926-.34451-.86128-1.29191-1.10243l-1.61919-.39619c-1.63642-.39618-2.46325-1.231-2.46325-2.48851C103.59269,15.71,105.03045,14.6156,107.14114,14.6156Z" transform="translate(-0.00007 -0.00006)" style="fill: #fff"/>
      <path d="M112.28467,12.3338a1.08083,1.08083,0,1,1,1.076,1.05879A1.06917,1.06917,0,0,1,112.28467,12.3338Zm.14584,2.38516h1.86035v9.0606h-1.86035Z" transform="translate(-0.00007 -0.00006)" style="fill: #fff"/>
      <path d="M122.30416,17.83677a2.00238,2.00238,0,0,0-2.136-1.67087c-1.42972,0-2.37712,1.19774-2.37712,3.08336,0,1.92925.95544,3.09254,2.39434,3.09254a1.95084,1.95084,0,0,0,2.11874-1.62838h1.79145a3.62172,3.62172,0,0,1-3.92741,3.17868c-2.58383,0-4.27192-1.76619-4.27192-4.64284,0-2.8158,1.68809-4.6417,4.25469-4.6417a3.64194,3.64194,0,0,1,3.92741,3.22921Z" transform="translate(-0.00007 -0.00006)" style="fill: #fff"/>
    </g>
    <g>
      <path d="M36.27588,4.50517c0,1.94726-1.06641,3.17675-2.82031,3.17675-1.75782,0-2.82813-1.22558-2.82813-3.17675,0-1.95508,1.09082-3.17188,2.82813-3.17188C35.20166,1.33329,36.27588,2.554,36.27588,4.50517Zm-4.6875,0c0,1.39746.70508,2.2998,1.86719,2.2998,1.15039,0,1.85937-.90234,1.85937-2.2998,0-1.40528-.709-2.29493-1.85937-2.29493C32.31494,2.21024,31.58838,3.09989,31.58838,4.50517Z" transform="translate(-0.00007 -0.00006)" style="fill: #fff"/>
      <path d="M41.41553,7.53544h-.86914V6.80888H40.4751a1.3693,1.3693,0,0,1-1.37988.81445A1.484,1.484,0,0,1,37.521,5.93192V2.96513h.90234V5.69755c0,.73828.29785,1.09082.96094,1.09082A1.03728,1.03728,0,0,0,40.51318,5.639V2.96513h.90235Z" transform="translate(-0.00007 -0.00006)" style="fill: #fff"/>
      <path d="M45.83936,4.45927a1.01982,1.01982,0,0,0-1.07813-.77637c-.75586,0-1.2168.5791-1.2168,1.55274,0,.99023.46582,1.582,1.2168,1.582a.99156.99156,0,0,0,1.07813-.751h.877a1.73362,1.73362,0,0,1-1.63672,1.54l-.17187.44043c.55371.01269.873.26855.873.709,0,.49512-.39063.81836-1.05762.81836a2.34011,2.34011,0,0,1-.61718-.07129v-.5039a2.37739,2.37739,0,0,0,.5039.05957c.31934,0,.48633-.09668.48633-.28125,0-.18067-.17187-.25586-.5957-.25586h-.24707V8.11454l.21387-.50781a2.10222,2.10222,0,0,1-1.84668-2.37109,2.084,2.084,0,0,1,2.14062-2.3584,1.80206,1.80206,0,0,1,1.95508,1.582Z" transform="translate(-0.00007 -0.00006)" style="fill: #fff"/>
      <path d="M47.60791,6.24247c0-.82226.61231-1.2959,1.69922-1.36328l1.23828-.07129V4.41337c0-.48242-.31934-.75586-.93555-.75586-.5039,0-.85254.18555-.95312.50781h-.873c.09278-.78418.83106-1.28808,1.86719-1.28808,1.14648,0,1.792.57129,1.792,1.53613V7.53544h-.86816V6.89286h-.07129a1.53761,1.53761,0,0,1-1.37207.71778A1.38057,1.38057,0,0,1,47.60791,6.24247Zm2.9375-.38965V5.471l-1.11621.07129c-.62988.042-.915.25586-.915.6582,0,.41113.35645.65039.84766.65039A1.07693,1.07693,0,0,0,50.54541,5.85282Z" transform="translate(-0.00007 -0.00006)" style="fill: #fff"/>
      <path d="M55.32568,2.96513h.86914v.72656h.06739a1.3669,1.3669,0,0,1,1.36328-.81445,1.48683,1.48683,0,0,1,1.582,1.69922v2.959h-.90234V4.803c0-.7334-.31836-1.09863-.98633-1.09863A1.04774,1.04774,0,0,0,56.228,4.86259V7.53544h-.90235Z" transform="translate(-0.00007 -0.00006)" style="fill: #fff"/>
      <path d="M60.37061,5.24833a2.16465,2.16465,0,1,1,4.30957,0,2.165,2.165,0,1,1-4.30957,0Zm3.38281,0c0-.99023-.44531-1.56934-1.22559-1.56934-.78515,0-1.22558.57911-1.22558,1.56934,0,.999.44043,1.57324,1.22558,1.57324C63.30811,6.82157,63.75342,6.24247,63.75342,5.24833Z" transform="translate(-0.00007 -0.00006)" style="fill: #fff"/>
    </g>
    <g>
      <path d="M25.16333,7.87146c0-.30054.00013-.60107-.00169-.90161-.00154-.25317-.00447-.50627-.01131-.75936A11.0312,11.0312,0,0,0,25.005,4.558a5.57752,5.57752,0,0,0-.51789-1.57171A5.2842,5.2842,0,0,0,22.17693.67616,5.57668,5.57668,0,0,0,20.60606.1585,11.02747,11.02747,0,0,0,18.95291.01307c-.25309-.00685-.50619-.00977-.75935-.01131-.30054-.00182-.60108-.00169-.90162-.00169H7.87146c-.30054,0-.60108-.00013-.90162.00169-.25316.00154-.50626.00446-.75935.01131A11.02759,11.02759,0,0,0,4.55734.1585,5.57657,5.57657,0,0,0,2.98647.67616,5.2842,5.2842,0,0,0,.67627,2.98625,5.57752,5.57752,0,0,0,.15838,4.558,11.03384,11.03384,0,0,0,.01306,6.21049c-.00683.25309-.00976.50619-.0113.75936-.00183.30054-.00169.60107-.00169.90161v9.42048c0,.30054-.00014.60107.00169.90161.00154.25316.00447.50626.0113.75935a11.034,11.034,0,0,0,.14532,1.65254,5.57763,5.57763,0,0,0,.51789,1.57171,5.2842,5.2842,0,0,0,2.3102,2.31009,5.57689,5.57689,0,0,0,1.57087.51766,11.0289,11.0289,0,0,0,1.65315.14543c.25309.00684.50619.00977.75935.01131.30054.00182.60108.00169.90162.00169h9.42048c.30054,0,.60108.00013.90162-.00169.25316-.00154.50626-.00447.75935-.01131a11.02879,11.02879,0,0,0,1.65315-.14543,5.577,5.577,0,0,0,1.57087-.51766,5.2842,5.2842,0,0,0,2.3102-2.31009,5.57763,5.57763,0,0,0,.51789-1.57171,11.03133,11.03133,0,0,0,.14531-1.65254c.00684-.25309.00977-.50619.01131-.75935.00182-.30054.00169-.60107.00169-.90161Z" transform="translate(-0.00007 -0.00006)" style="fill-rule: evenodd;fill: url(#linear-gradient)"/>
      <g id="Glyph">
        <path d="M17.78937,3.84434c-.06073.00525-.60126.10126-.66614.1145L9.6441,5.46775l-.0028.00061A1.04367,1.04367,0,0,0,9.175,5.678a.76009.76009,0,0,0-.25159.48559,1.6755,1.6755,0,0,0-.01709.25318s.00012,7.64105.00018,9.36047a.907.907,0,0,1-.16552.61243.84757.84757,0,0,1-.5456.27875l-.48828.09851a8.53176,8.53176,0,0,0-1.38409.35028,2.18032,2.18032,0,0,0-.81635.52472A1.99129,1.99129,0,0,0,5.60577,20.452a1.88582,1.88582,0,0,0,.908.46558,3.34441,3.34441,0,0,0,1.34943-.06836,2.75327,2.75327,0,0,0,.874-.32245,2.19325,2.19325,0,0,0,.68842-.63665,2.333,2.333,0,0,0,.36657-.86329,4.3382,4.3382,0,0,0,.08356-.927V9.98094c0-.43506.12329-.54969.47394-.6344,0,0,6.21692-1.25385,6.50647-1.31025.405-.07788.59515.03772.59515.4618l-.00012,5.54223a.92171.92171,0,0,1-.15149.62366.84791.84791,0,0,1-.54565.27875q-.24417.04925-.48828.09845a8.534,8.534,0,0,0-1.3841.35034,2.17915,2.17915,0,0,0-.81634.52472,1.95633,1.95633,0,0,0,.09912,2.81,1.87946,1.87946,0,0,0,.908.461,3.344,3.344,0,0,0,1.34942-.06836,2.74341,2.74341,0,0,0,.874-.31774,2.1951,2.1951,0,0,0,.68847-.63672,2.33479,2.33479,0,0,0,.36658-.86328,4.326,4.326,0,0,0,.06988-.927V4.50565C18.42065,4.07487,18.19366,3.80943,17.78937,3.84434Z" transform="translate(-0.00007 -0.00006)" style="fill: #fff;fill-rule: evenodd"/>
      </g>
    </g>
  </g>
</svg>
