<?xml version="1.0" encoding="utf-8"?>
<!-- Generator: Adobe Illustrator 24.3.0, SVG Export Plug-In . SVG Version: 6.00 Build 0)  -->
<svg version="1.1" id="Artwork" xmlns="http://www.w3.org/2000/svg" xmlns:xlink="http://www.w3.org/1999/xlink" x="0px" y="0px"
	 width="124.092px" height="26.776px" viewBox="0 0 124.092 26.776" style="enable-background:new 0 0 124.092 26.776;"
	 xml:space="preserve">
<style type="text/css">
	.st0{fill:#FFFFFF;}
</style>
<g>
	<g id="XMLID_1_">
		<g id="XMLID_19_">
			<path id="XMLID_20_" class="st0" d="M38.166,20.42h-4.737l-1.137,3.359h-2.007l4.487-12.427h2.084l4.487,12.427h-2.041
				L38.166,20.42z M33.92,18.87h3.755l-1.852-5.451h-0.052L33.92,18.87z"/>
			<path id="XMLID_23_" class="st0" d="M51.024,19.249c0,2.817-1.507,4.625-3.781,4.625c-1.292,0-2.317-0.578-2.851-1.585H44.35
				v4.487h-1.86V14.719h1.8v1.508h0.034c0.517-0.974,1.619-1.602,2.885-1.602C49.509,14.624,51.024,16.441,51.024,19.249z
				 M49.112,19.249c0-1.834-0.947-3.04-2.394-3.04c-1.421,0-2.377,1.231-2.377,3.04c0,1.826,0.956,3.049,2.377,3.049
				C48.165,22.298,49.112,21.101,49.112,19.249z"/>
			<path id="XMLID_27_" class="st0" d="M60.989,19.249c0,2.817-1.507,4.625-3.781,4.625c-1.292,0-2.317-0.578-2.851-1.585h-0.043
				v4.487h-1.86V14.719h1.8v1.508h0.034c0.517-0.974,1.619-1.602,2.885-1.602C59.473,14.624,60.989,16.441,60.989,19.249z
				 M59.077,19.249c0-1.834-0.947-3.04-2.394-3.04c-1.421,0-2.377,1.231-2.377,3.04c0,1.826,0.956,3.049,2.377,3.049
				C58.13,22.298,59.077,21.101,59.077,19.249z"/>
			<path id="XMLID_39_" class="st0" d="M62.488,11.352h1.86v12.427h-1.86V11.352z"/>
			<path id="XMLID_45_" class="st0" d="M74.028,21.118c-0.25,1.644-1.852,2.773-3.901,2.773c-2.635,0-4.272-1.766-4.272-4.599
				c0-2.842,1.645-4.685,4.194-4.685c2.506,0,4.082,1.723,4.082,4.469v0.637h-6.399v0.113c0,1.55,0.973,2.567,2.437,2.567
				c1.034,0,1.843-0.491,2.093-1.275H74.028z M67.741,18.414h4.53c-0.043-1.387-0.93-2.3-2.222-2.3
				C68.766,16.114,67.836,17.044,67.741,18.414z"/>
			<path id="XMLID_49_" class="st0" d="M90.176,23.779v-9.146h-0.06l-3.747,9.052h-1.43l-3.755-9.052h-0.06v9.146h-1.757V11.352
				h2.23l4.023,9.809h0.069l4.013-9.809h2.239v12.427H90.176z"/>
			<path id="XMLID_51_" class="st0" d="M101.848,23.779h-1.782v-1.558h-0.044c-0.517,1.085-1.42,1.662-2.808,1.662
				c-1.972,0-3.177-1.275-3.177-3.35v-5.814h1.86v5.452c0,1.378,0.655,2.109,1.937,2.109c1.344,0,2.153-0.93,2.153-2.343v-5.219
				h1.86V23.779z"/>
			<path id="XMLID_53_" class="st0" d="M107.138,14.615c2.006,0,3.445,1.112,3.487,2.714h-1.748
				c-0.078-0.802-0.758-1.292-1.791-1.292c-1.008,0-1.68,0.465-1.68,1.171c0,0.542,0.448,0.904,1.387,1.137l1.524,0.353
				c1.826,0.44,2.515,1.112,2.515,2.438c0,1.636-1.55,2.756-3.763,2.756c-2.136,0-3.575-1.094-3.713-2.748h1.843
				c0.13,0.87,0.827,1.336,1.956,1.336c1.11,0,1.809-0.457,1.809-1.18c0-0.559-0.344-0.861-1.292-1.102l-1.619-0.396
				c-1.636-0.396-2.463-1.231-2.463-2.488C103.59,15.71,105.028,14.615,107.138,14.615z"/>
			<path id="XMLID_55_" class="st0" d="M112.282,12.333c0-0.603,0.482-1.068,1.076-1.068c0.603,0,1.085,0.465,1.085,1.068
				c0,0.586-0.482,1.059-1.085,1.059C112.764,13.392,112.282,12.919,112.282,12.333z M112.427,14.719h1.86v9.06h-1.86V14.719z"/>
			<path id="XMLID_58_" class="st0" d="M122.301,17.836c-0.164-0.955-0.913-1.671-2.136-1.671c-1.43,0-2.377,1.198-2.377,3.083
				c0,1.929,0.955,3.092,2.394,3.092c1.154,0,1.912-0.578,2.119-1.628h1.791c-0.207,1.904-1.732,3.179-3.927,3.179
				c-2.584,0-4.272-1.766-4.272-4.643c0-2.816,1.688-4.642,4.255-4.642c2.325,0,3.772,1.464,3.927,3.229H122.301z"/>
		</g>
		<path id="XMLID_2_" class="st0" d="M24.665,3.353c-0.245-0.621-0.809-1.496-1.609-2.112c-0.462-0.356-1.014-0.696-1.772-0.921
			C20.476,0.081,19.481,0,18.243,0H6.92C5.681,0,4.686,0.081,3.879,0.32C3.121,0.545,2.569,0.885,2.107,1.241
			c-0.8,0.616-1.365,1.491-1.609,2.112C0.005,4.605,0,6.025,0,6.92v11.323c0,0.894,0.005,2.315,0.498,3.567
			c0.245,0.621,0.809,1.496,1.609,2.112c0.462,0.356,1.014,0.696,1.772,0.921c0.808,0.239,1.803,0.32,3.041,0.32h11.323
			c1.238,0,2.233-0.081,3.041-0.32c0.758-0.225,1.309-0.565,1.772-0.921c0.8-0.616,1.365-1.491,1.609-2.112
			c0.493-1.252,0.498-2.672,0.498-3.567V6.92C25.163,6.025,25.158,4.605,24.665,3.353z M18.356,17.307
			c-0.065,0.31-0.184,0.601-0.367,0.863c-0.182,0.262-0.416,0.476-0.688,0.637c-0.276,0.163-0.565,0.256-0.874,0.318
			c-0.58,0.117-0.977,0.143-1.349,0.068c-0.36-0.072-0.664-0.238-0.908-0.461c-0.361-0.331-0.586-0.778-0.635-1.246
			c-0.058-0.548,0.125-1.133,0.536-1.564c0.208-0.217,0.468-0.39,0.816-0.525c0.364-0.141,0.766-0.226,1.384-0.35
			c0.163-0.033,0.325-0.066,0.488-0.098c0.214-0.043,0.398-0.098,0.546-0.279c0.149-0.182,0.152-0.401,0.152-0.62l0-5.545
			c0-0.424-0.19-0.54-0.595-0.462c-0.289,0.056-6.506,1.31-6.506,1.31c-0.351,0.085-0.474,0.199-0.474,0.634l0,8.125
			c0,0.319-0.017,0.601-0.084,0.92c-0.065,0.31-0.184,0.601-0.367,0.863c-0.182,0.262-0.416,0.476-0.688,0.637
			c-0.276,0.163-0.565,0.26-0.874,0.322c-0.58,0.117-0.977,0.143-1.349,0.068c-0.36-0.072-0.664-0.242-0.908-0.466
			c-0.361-0.331-0.571-0.778-0.621-1.246c-0.058-0.548,0.11-1.133,0.521-1.564c0.208-0.218,0.468-0.39,0.816-0.525
			c0.364-0.141,0.766-0.226,1.384-0.35c0.163-0.033,0.326-0.066,0.488-0.098c0.214-0.043,0.398-0.098,0.546-0.279
			c0.148-0.181,0.165-0.398,0.165-0.616c0-1.719,0-9.357,0-9.357c0-0.126,0.011-0.21,0.017-0.252
			c0.03-0.197,0.109-0.366,0.252-0.486c0.118-0.1,0.271-0.168,0.466-0.21L9.65,5.474l7.479-1.509
			c0.065-0.013,0.605-0.109,0.666-0.114c0.404-0.035,0.631,0.231,0.631,0.661l0,11.87C18.426,16.701,18.423,16.987,18.356,17.307z"
			/>
	</g>
	<g>
		<path class="st0" d="M36.276,4.505c0,1.947-1.066,3.177-2.82,3.177c-1.758,0-2.828-1.226-2.828-3.177
			c0-1.955,1.091-3.172,2.828-3.172C35.202,1.333,36.276,2.554,36.276,4.505z M31.588,4.505c0,1.397,0.705,2.3,1.867,2.3
			c1.15,0,1.859-0.902,1.859-2.3c0-1.405-0.709-2.295-1.859-2.295C32.315,2.21,31.588,3.1,31.588,4.505z"/>
		<path class="st0" d="M41.416,7.535h-0.869V6.809h-0.071c-0.222,0.521-0.688,0.814-1.38,0.814c-1.012,0-1.574-0.617-1.574-1.691
			V2.965h0.902v2.732c0,0.738,0.298,1.091,0.961,1.091c0.73,0,1.129-0.433,1.129-1.149V2.965h0.902V7.535z"/>
		<path class="st0" d="M45.839,4.459c-0.104-0.444-0.475-0.776-1.078-0.776c-0.756,0-1.217,0.579-1.217,1.553
			c0,0.99,0.466,1.582,1.217,1.582c0.57,0,0.961-0.26,1.078-0.751h0.877c-0.104,0.831-0.692,1.431-1.637,1.54l-0.172,0.44
			c0.554,0.013,0.873,0.269,0.873,0.709c0,0.495-0.391,0.818-1.058,0.818c-0.248,0-0.449-0.025-0.617-0.071V8.999
			c0.097,0.029,0.349,0.06,0.504,0.06c0.319,0,0.486-0.097,0.486-0.281c0-0.181-0.172-0.256-0.596-0.256h-0.247V8.115l0.214-0.508
			c-1.154-0.126-1.847-0.995-1.847-2.371c0-1.465,0.811-2.358,2.141-2.358c1.146,0,1.838,0.667,1.955,1.582H45.839z"/>
		<path class="st0" d="M47.608,6.242c0-0.822,0.612-1.296,1.699-1.363l1.238-0.071V4.413c0-0.482-0.319-0.756-0.936-0.756
			c-0.504,0-0.853,0.186-0.953,0.508h-0.873c0.093-0.784,0.831-1.288,1.867-1.288c1.146,0,1.792,0.571,1.792,1.536v3.122h-0.868
			V6.893h-0.071c-0.273,0.458-0.772,0.718-1.372,0.718C48.25,7.611,47.608,7.077,47.608,6.242z M50.545,5.853V5.471l-1.116,0.071
			c-0.63,0.042-0.915,0.256-0.915,0.658c0,0.411,0.356,0.65,0.848,0.65C50.042,6.851,50.545,6.419,50.545,5.853z"/>
		<path class="st0" d="M55.326,2.965h0.869v0.727h0.067c0.222-0.508,0.675-0.814,1.363-0.814c1.02,0,1.582,0.613,1.582,1.699v2.959
			h-0.902V4.803c0-0.733-0.318-1.099-0.986-1.099c-0.667,0-1.091,0.444-1.091,1.158v2.673h-0.902V2.965z"/>
		<path class="st0" d="M60.371,5.248c0-1.473,0.822-2.371,2.157-2.371c1.33,0,2.152,0.898,2.152,2.371
			c0,1.481-0.818,2.375-2.152,2.375C61.189,7.623,60.371,6.73,60.371,5.248z M63.753,5.248c0-0.99-0.445-1.569-1.226-1.569
			c-0.785,0-1.226,0.579-1.226,1.569c0,0.999,0.44,1.573,1.226,1.573C63.308,6.822,63.753,6.242,63.753,5.248z"/>
	</g>
</g>
</svg>
