<svg id="Artwork" xmlns="http://www.w3.org/2000/svg" xmlns:xlink="http://www.w3.org/1999/xlink" viewBox="0 0 200 37.28"><defs><style>.cls-1,.cls-3{fill:#fff;}.cls-2,.cls-3{fill-rule:evenodd;}.cls-2{fill:url(#Gradiente_sem_nome_11);}</style><linearGradient id="Gradiente_sem_nome_11" x1="26.72" y1="37.13" x2="26.72" y2="0.8" gradientUnits="userSpaceOnUse"><stop offset="0" stop-color="#fa233b"/><stop offset="1" stop-color="#fb5c74"/></linearGradient></defs><path class="cls-1" d="M64.62,21.91h-7l-1.68,5H53L59.59,8.47h3.09l6.65,18.41h-3Zm-6.29-2.3h5.56l-2.74-8.08h-.08Z"/><path class="cls-1" d="M83.67,20.17c0,4.18-2.23,6.86-5.6,6.86a4.55,4.55,0,0,1-4.22-2.35h-.07v6.64H71V13.46h2.66v2.23h0A4.77,4.77,0,0,1,78,13.32C81.43,13.32,83.67,16,83.67,20.17Zm-2.83,0c0-2.71-1.41-4.5-3.55-4.5s-3.52,1.82-3.52,4.5,1.42,4.52,3.52,4.52S80.84,22.92,80.84,20.17Z"/><path class="cls-1" d="M98.43,20.17c0,4.18-2.23,6.86-5.6,6.86a4.55,4.55,0,0,1-4.22-2.35h-.06v6.64H85.79V13.46h2.67v2.23h.05a4.75,4.75,0,0,1,4.27-2.37C96.19,13.32,98.43,16,98.43,20.17Zm-2.83,0c0-2.71-1.4-4.5-3.55-4.5s-3.52,1.82-3.52,4.5,1.42,4.52,3.52,4.52S95.6,22.92,95.6,20.17Z"/><path class="cls-1" d="M100.65,8.47h2.76V26.88h-2.76Z"/><path class="cls-1" d="M117.75,22.94c-.37,2.44-2.74,4.11-5.78,4.11-3.9,0-6.33-2.62-6.33-6.81s2.44-6.94,6.22-6.94,6,2.55,6,6.62v.94h-9.48V21a3.5,3.5,0,0,0,3.62,3.8,3,3,0,0,0,3.1-1.89Zm-9.31-4h6.71a3.23,3.23,0,0,0-3.29-3.41A3.4,3.4,0,0,0,108.44,18.94Z"/><path class="cls-1" d="M141.68,26.88V13.33h-.09L136,26.74h-2.12l-5.57-13.41h-.08V26.88h-2.61V8.47H129l6,14.53h.1L141,8.47h3.32V26.88Z"/><path class="cls-1" d="M159,26.88h-2.64v-2.3h-.07A4.19,4.19,0,0,1,152.1,27c-2.92,0-4.71-1.89-4.71-5V13.46h2.76v8.08c0,2,1,3.12,2.87,3.12s3.19-1.37,3.19-3.47V13.46H159Z"/><path class="cls-1" d="M166.8,13.31c3,0,5.11,1.64,5.17,4h-2.59c-.11-1.19-1.12-1.92-2.65-1.92s-2.49.69-2.49,1.74c0,.8.66,1.34,2,1.68l2.26.53c2.71.65,3.73,1.64,3.73,3.61,0,2.42-2.3,4.08-5.58,4.08s-5.29-1.62-5.5-4.07h2.73c.2,1.29,1.23,2,2.9,2s2.68-.68,2.68-1.75c0-.83-.51-1.28-1.91-1.63L165.2,21q-3.64-.89-3.65-3.69C161.55,14.93,163.68,13.31,166.8,13.31Z"/><path class="cls-1" d="M174.42,9.93A1.61,1.61,0,1,1,176,11.5,1.6,1.6,0,0,1,174.42,9.93Zm.22,3.53h2.76V26.88h-2.76Z"/><path class="cls-1" d="M189.27,18.08a3,3,0,0,0-3.17-2.48c-2.11,0-3.52,1.78-3.52,4.57s1.42,4.58,3.55,4.58a2.89,2.89,0,0,0,3.14-2.41h2.65c-.3,2.82-2.56,4.71-5.82,4.71-3.82,0-6.32-2.62-6.32-6.88s2.5-6.87,6.3-6.87c3.44,0,5.59,2.16,5.82,4.78Z"/><path class="cls-2" d="M45.36,11.66c0-.44,0-.89,0-1.33s0-.75,0-1.13a16.77,16.77,0,0,0-.22-2.45,8.4,8.4,0,0,0-.77-2.33,7.56,7.56,0,0,0-1.44-2,7.79,7.79,0,0,0-2-1.44A8.29,8.29,0,0,0,38.6.23,16.63,16.63,0,0,0,36.16,0L35,0H18.4L17.28,0a16.76,16.76,0,0,0-2.45.21A8.4,8.4,0,0,0,12.5,1,7.85,7.85,0,0,0,9.08,4.42a8.4,8.4,0,0,0-.77,2.33A16.76,16.76,0,0,0,8.1,9.2c0,.38,0,.75,0,1.13V27c0,.38,0,.75,0,1.13a16.88,16.88,0,0,0,.21,2.45,8.23,8.23,0,0,0,.77,2.32,7.67,7.67,0,0,0,1.44,2A7.85,7.85,0,0,0,14.83,37a15.5,15.5,0,0,0,2.45.22l1.12,0H35l1.13,0A15.37,15.37,0,0,0,38.6,37a7.85,7.85,0,0,0,4.31-2.2,7.44,7.44,0,0,0,1.44-2,8.23,8.23,0,0,0,.77-2.32,16.9,16.9,0,0,0,.22-2.45c0-.38,0-.75,0-1.13s0-.89,0-1.33Z"/><g id="Glyph"><path class="cls-3" d="M34.43,5.7c-.09,0-.89.15-1,.16L22.36,8.1h0a1.52,1.52,0,0,0-.69.31,1.12,1.12,0,0,0-.37.72,2.25,2.25,0,0,0,0,.38V23.37a1.34,1.34,0,0,1-.24.91,1.23,1.23,0,0,1-.81.41l-.72.15a12.15,12.15,0,0,0-2.06.52,3.09,3.09,0,0,0-1.2.78,2.92,2.92,0,0,0-.78,2.31,3,3,0,0,0,.92,1.85,2.81,2.81,0,0,0,1.35.69,5,5,0,0,0,2-.1A4.12,4.12,0,0,0,21,30.41a3.28,3.28,0,0,0,1.56-2.22,6.45,6.45,0,0,0,.13-1.38v-12c0-.65.18-.82.7-.94l9.64-1.94c.6-.12.88.05.88.68V20.8a1.35,1.35,0,0,1-.22.92,1.28,1.28,0,0,1-.81.42l-.73.14a13.32,13.32,0,0,0-2.05.52,3.33,3.33,0,0,0-1.21.78,2.9,2.9,0,0,0,.15,4.16,2.81,2.81,0,0,0,1.35.69,4.89,4.89,0,0,0,2-.11,4.09,4.09,0,0,0,1.29-.47,3.16,3.16,0,0,0,1-.94,3.37,3.37,0,0,0,.54-1.28,6.34,6.34,0,0,0,.11-1.37V6.67C35.37,6,35,5.64,34.43,5.7Z"/></g></svg>