<svg id="Layer_1" data-name="Layer 1" xmlns="http://www.w3.org/2000/svg" xmlns:xlink="http://www.w3.org/1999/xlink" viewBox="0 0 1585 1585"><defs><style>.cls-1{fill:none;}.cls-2{clip-path:url(#clip-path);}.cls-3{fill:#282828;}</style><clipPath id="clip-path"><rect class="cls-1" x="17.8" y="674.16" width="1556" height="223.14"/></clipPath></defs><g class="cls-2"><polygon class="cls-3" points="586.26 886.04 546.68 886.04 546.68 745.69 495.51 745.69 495.51 711.77 637.43 711.77 637.43 745.69 586.26 745.69 586.26 886.04"/><rect class="cls-3" x="755.85" y="711.77" width="39.8" height="174.27"/><polygon class="cls-3" points="1498.1 851.66 1566.94 851.66 1566.94 886.05 1458.29 886.05 1458.29 711.78 1498.1 711.78 1498.1 851.66"/><path class="cls-3" d="M966.79,851.88h24.69c33.2,0,55.34-20.71,55.34-53.68,0-31.33-22.37-52.51-54.41-52.51H966.79ZM928.17,711.77h64.47c47.58,0,94.93,25.2,94.93,86.67,0,57.93-46.4,87.6-92.57,87.6H928.17Z"/><path class="cls-3" d="M1232.92,820.7l26.26-68.16,26,68.16ZM1308.48,886h43.75l-71.8-174.27h-41.09L1166.85,886h42.56l12.85-34.38h73.49Z"/><polygon class="cls-3" points="229.37 737.16 178.37 788.18 127.35 737.16 178.37 686.17 229.37 737.16"/><polygon class="cls-3" points="229.37 839.2 178.37 890.2 127.35 839.2 178.37 788.18 229.37 839.2"/><polygon class="cls-3" points="127.35 737.16 76.33 788.18 25.33 737.16 76.33 686.16 127.35 737.16"/><polygon class="cls-3" points="331.39 737.16 280.38 788.18 229.37 737.16 280.38 686.16 331.39 737.16"/></g></svg>