<svg id="Layer_1" data-name="Layer 1" xmlns="http://www.w3.org/2000/svg" xmlns:xlink="http://www.w3.org/1999/xlink" viewBox="0 0 200 28.16"><defs><style>.cls-1{fill:none;}.cls-2{clip-path:url(#clip-path);}.cls-3{fill:#fff;}</style><clipPath id="clip-path"><rect class="cls-1" x="1.83" width="196.34" height="28.16"/></clipPath></defs><g class="cls-2"><polygon class="cls-3" points="73.56 26.74 68.56 26.74 68.56 9.03 62.11 9.03 62.11 4.75 80.02 4.75 80.02 9.03 73.56 9.03 73.56 26.74"/><rect class="cls-3" x="94.96" y="4.75" width="5.02" height="21.99"/><polygon class="cls-3" points="188.62 22.4 197.3 22.4 197.3 26.74 183.59 26.74 183.59 4.75 188.62 4.75 188.62 22.4"/><path class="cls-3" d="M121.58,22.43h3.11c4.19,0,7-2.62,7-6.78,0-4-2.82-6.62-6.86-6.62h-3.23ZM116.7,4.75h8.14c6,0,12,3.18,12,10.93,0,7.31-5.86,11.06-11.68,11.06H116.7Z"/><path class="cls-3" d="M155.16,18.49l3.31-8.6,3.28,8.6Zm9.53,8.25h5.52l-9.06-22H156l-9.15,22h5.37l1.62-4.34h9.27Z"/><rect class="cls-3" x="17.54" y="3.4" width="9.1" height="9.1" transform="translate(0.85 17.95) rotate(-45.01)"/><rect class="cls-3" x="17.54" y="16.27" width="9.1" height="9.1" transform="translate(-8.26 21.72) rotate(-45)"/><rect class="cls-3" x="4.66" y="3.4" width="9.1" height="9.1" transform="translate(-2.92 8.85) rotate(-45)"/><rect class="cls-3" x="30.41" y="3.4" width="9.1" height="9.1" transform="translate(4.62 27.06) rotate(-45.01)"/></g></svg>