<svg id="Camada_1" data-name="Camada 1" xmlns="http://www.w3.org/2000/svg" viewBox="0 0 200 107.29"><defs><style>.cls-1{fill-rule:evenodd;}</style></defs><path class="cls-1" d="M129.64,46.57A9.54,9.54,0,0,1,124.38,48a32.68,32.68,0,0,1-9.91-1.41,10.51,10.51,0,0,0-1.82-.41c-.6,0-.8.41-.8,1.22v2a3,3,0,0,0,.4,1.42,3.13,3.13,0,0,0,1.21.8,26.92,26.92,0,0,0,10.92,2c4.25,0,7.48-1,10.11-3a9.51,9.51,0,0,0,3.84-8.08,9.2,9.2,0,0,0-1.82-5.87,14.26,14.26,0,0,0-6.06-3.84l-5.66-2.23c-2.23-.8-3.85-1.61-4.45-2.42a3.83,3.83,0,0,1-1.22-3c0-3,2.23-4.65,6.88-4.65a24.36,24.36,0,0,1,7.68,1.22c.81.2,1.42.4,1.62.4.61,0,1-.4,1-1.21v-2a3,3,0,0,0-.4-1.42,1.87,1.87,0,0,0-1.22-.81A28.76,28.76,0,0,0,125.6,15a15.62,15.62,0,0,0-9.51,2.84,9,9,0,0,0-3.64,7.48c0,4.65,2.63,8.09,7.89,10.11l6.06,2.22a11.86,11.86,0,0,1,4,2.23,3.51,3.51,0,0,1,1,2.83,4.44,4.44,0,0,1-1.82,3.84ZM151.28,2.29a4.77,4.77,0,0,0-3.44-1.22,4.27,4.27,0,0,0-3.24,1.22,4.09,4.09,0,0,0-1.21,3,3.81,3.81,0,0,0,1.21,3,4.93,4.93,0,0,0,6.47,0,4.12,4.12,0,0,0,1.22-3,3.73,3.73,0,0,0-1-3ZM150.06,16h-4.24c-1,0-1.42.4-1.42,1.41V51c0,1,.41,1.41,1.42,1.41h4.24c1,0,1.42-.4,1.42-1.41V17.45A1.28,1.28,0,0,0,150.06,16Zm19,8.08c1.82-2,4.65-3,8.7-3a18.58,18.58,0,0,1,5.86.81,3,3,0,0,0,1.21.2c.61,0,1-.4,1-1.41v-2a2.37,2.37,0,0,0-.4-1.41,4.45,4.45,0,0,0-1-.81,35.43,35.43,0,0,0-7.69-1.21c-5.66,0-9.9,1.61-13.14,5.05-3,3.24-4.65,8.09-4.65,14.16s1.42,10.71,4.45,14,7.28,4.85,12.94,4.85a20,20,0,0,0,8.09-1.41,1.88,1.88,0,0,0,1.21-.81c.2-.2.2-.81.2-1.42v-2c0-1-.4-1.42-1-1.42a2.14,2.14,0,0,0-1,.21,25.51,25.51,0,0,1-6.47,1q-5.76,0-8.49-3c-1.82-2-2.63-5.26-2.63-9.51v-1c.2-4.45,1-7.68,2.83-9.71ZM59.47,52.43h4.25c1,0,1.41-.4,1.41-1.41V25.74c0-3.44-.8-6.06-2.62-7.88A10.24,10.24,0,0,0,54.82,15a23.77,23.77,0,0,0-14.15,5.06C39.05,16.64,36,15,31.57,15s-8.9,1.62-13.35,4.66l-.4-2.23a.94.94,0,0,0-.61-1,1.53,1.53,0,0,0-1-.2H13c-1,0-1.41.4-1.41,1.41V51.22c0,1,.4,1.42,1.41,1.42h4.25c1,0,1.42-.41,1.42-1.42V23.92a20.58,20.58,0,0,1,10.51-3.23c2,0,3.44.6,4.25,1.82a9,9,0,0,1,1.41,5.25V51c0,1,.41,1.41,1.42,1.41h4.24c1,0,1.42-.4,1.42-1.41V23.92a19.88,19.88,0,0,1,10.51-3.23c2,0,3.44.6,4.25,1.82a9,9,0,0,1,1.42,5.25V51c0,1,.4,1.41,1.41,1.41Zm38.42-35v26.9a19,19,0,0,1-10.31,3.43c-2.22,0-3.84-.6-4.85-1.82s-1.42-3-1.42-5.66V17.45c0-1-.4-1.41-1.41-1.41H75.65c-1,0-1.42.4-1.42,1.41V42.53c0,3.43.81,6.26,2.63,8.08s4.45,2.83,7.89,2.83A23.24,23.24,0,0,0,98.5,48.59L98.9,51a.94.94,0,0,0,.61,1c.2.2.61.2,1.21.2h3c1,0,1.41-.4,1.41-1.41V17.45c0-1-.4-1.41-1.41-1.41H99.51c-1.21,0-1.62.6-1.62,1.41Z"/><path class="cls-1" d="M178.17,98.34c10.51-8.9,13.35-27.3,11.12-30.13-1-1.22-5.86-2.43-11.93-2.43-6.47,0-14.15,1.41-20,5.46-1.82,1.21-1.41,2.83.41,2.63,6.27-.81,20.42-2.43,23.05.81,2.43,3.23-2.83,16.58-5.26,22.44-.61,1.82.81,2.43,2.63,1.22Zm-8.49-19a178.46,178.46,0,0,1-67.95,14c-32.35,0-63.69-8.9-89-23.66a2.88,2.88,0,0,0-1.21-.4c-1.42,0-2.23,1.61-.81,3a131.82,131.82,0,0,0,89,34c24.67,0,53.18-7.68,72.8-22.24,3.44-2.43.6-6.07-2.83-4.65Z"/></svg>