<svg id="Camada_1" data-name="Camada 1" xmlns="http://www.w3.org/2000/svg" viewBox="0 0 200 107.29"><defs><style>.cls-1{fill:#fff;fill-rule:evenodd;}</style></defs><path class="cls-1" d="M129.46,46.43a9.59,9.59,0,0,1-5.26,1.42,32.69,32.69,0,0,1-9.91-1.42,10.27,10.27,0,0,0-1.82-.4c-.6,0-.81.4-.81,1.21v2a3,3,0,0,0,.41,1.42,3,3,0,0,0,1.21.81,27.09,27.09,0,0,0,10.92,2c4.25,0,7.48-1,10.11-3a9.53,9.53,0,0,0,3.84-8.09,9.2,9.2,0,0,0-1.82-5.87,14.26,14.26,0,0,0-6.06-3.84l-5.67-2.22c-2.22-.81-3.84-1.62-4.44-2.43a3.82,3.82,0,0,1-1.22-3c0-3,2.23-4.65,6.88-4.65a24.35,24.35,0,0,1,7.68,1.21c.81.2,1.42.4,1.62.4.61,0,1-.4,1-1.21v-2a3,3,0,0,0-.4-1.42,1.93,1.93,0,0,0-1.22-.81,28.75,28.75,0,0,0-9.1-1.61,15.6,15.6,0,0,0-9.5,2.83,9,9,0,0,0-3.64,7.48c0,4.65,2.63,8.09,7.89,10.11l6.06,2.22a12,12,0,0,1,4.05,2.23,3.52,3.52,0,0,1,1,2.83,4.44,4.44,0,0,1-1.82,3.84ZM151.09,2.15A4.73,4.73,0,0,0,147.66.93a4.27,4.27,0,0,0-3.24,1.22,4.11,4.11,0,0,0-1.21,3,3.8,3.8,0,0,0,1.21,3,4.9,4.9,0,0,0,6.47,0,4.1,4.1,0,0,0,1.22-3,3.7,3.7,0,0,0-1-3ZM149.88,15.9h-4.25c-1,0-1.41.4-1.41,1.41V50.88c0,1,.4,1.42,1.41,1.42h4.25c1,0,1.42-.41,1.42-1.42V17.31a1.28,1.28,0,0,0-1.42-1.41Zm19,8.09c1.82-2,4.65-3,8.69-3a18.9,18.9,0,0,1,5.87.81,3,3,0,0,0,1.21.2c.61,0,1-.4,1-1.41v-2a2.38,2.38,0,0,0-.4-1.42,4.45,4.45,0,0,0-1-.81,36,36,0,0,0-7.69-1.21c-5.66,0-9.91,1.62-13.14,5.05-3,3.24-4.65,8.09-4.65,14.16s1.41,10.72,4.45,14,7.28,4.85,12.94,4.85a20,20,0,0,0,8.09-1.41,1.83,1.83,0,0,0,1.21-.81c.2-.2.2-.81.2-1.41v-2c0-1-.4-1.41-1-1.41a2.21,2.21,0,0,0-1,.2,25.07,25.07,0,0,1-6.47,1q-5.76,0-8.49-3c-1.82-2-2.63-5.26-2.63-9.51v-1c.2-4.45,1-7.68,2.83-9.7ZM59.29,52.3h4.25c1,0,1.41-.41,1.41-1.42V25.6c0-3.43-.81-6.06-2.63-7.88a10.21,10.21,0,0,0-7.68-2.83,23.76,23.76,0,0,0-14.15,5.05c-1.62-3.44-4.66-5.05-9.1-5.05S22.49,16.5,18,19.54l-.4-2.23a.94.94,0,0,0-.61-1,1.53,1.53,0,0,0-1-.2H12.78c-1,0-1.41.4-1.41,1.42V51.08c0,1,.4,1.42,1.41,1.42H17c1,0,1.41-.41,1.41-1.42V23.78A20.65,20.65,0,0,1,29,20.55q3,0,4.25,1.82a9.13,9.13,0,0,1,1.41,5.26V50.88c0,1,.41,1.42,1.42,1.42h4.24c1,0,1.42-.41,1.42-1.42V23.78a19.88,19.88,0,0,1,10.51-3.23c2,0,3.44.61,4.25,1.82a9.05,9.05,0,0,1,1.41,5.26V50.88c0,1,.41,1.42,1.42,1.42Zm38.42-35v26.9A19.05,19.05,0,0,1,87.4,47.65c-2.23,0-3.84-.61-4.86-1.82s-1.41-3-1.41-5.67V17.31c0-1-.41-1.41-1.42-1.41H75.47c-1,0-1.42.4-1.42,1.41V42.39c0,3.44.81,6.27,2.63,8.09s4.45,2.83,7.89,2.83a23.25,23.25,0,0,0,13.75-4.86l.4,2.43a.92.92,0,0,0,.61,1c.2.2.61.2,1.21.2h3c1,0,1.42-.4,1.42-1.41V17.31c0-1-.4-1.41-1.42-1.41H99.33c-1.21,0-1.62.6-1.62,1.41Z"/><path class="cls-1" d="M178,98.2c10.51-8.9,13.34-27.3,11.12-30.13-1-1.21-5.86-2.43-11.93-2.43-6.47,0-14.16,1.42-20,5.46-1.82,1.21-1.41,2.83.4,2.63,6.27-.81,20.43-2.43,23.06.81,2.42,3.23-2.83,16.58-5.26,22.44-.61,1.82.81,2.43,2.63,1.22Zm-8.49-19a178.5,178.5,0,0,1-67.95,14c-32.35,0-63.69-8.89-89-23.66a2.88,2.88,0,0,0-1.21-.4c-1.42,0-2.23,1.62-.81,3a131.79,131.79,0,0,0,89,34c24.67,0,53.18-7.68,72.8-22.24,3.43-2.43.6-6.07-2.83-4.65Z"/></svg>