<?xml version="1.0" encoding="utf-8"?>
<!-- Generator: Adobe Illustrator 24.3.0, SVG Export Plug-In . SVG Version: 6.00 Build 0)  -->
<svg version="1.1" id="PTBR" xmlns="http://www.w3.org/2000/svg" xmlns:xlink="http://www.w3.org/1999/xlink" x="0px" y="0px"
	 width="124.113px" height="26.774px" viewBox="0 0 124.113 26.774" enable-background="new 0 0 124.113 26.774"
	 xml:space="preserve">
<g>
	<path id="XMLID_187_" d="M24.665,3.353c-0.245-0.621-0.809-1.496-1.609-2.112c-0.462-0.356-1.014-0.696-1.772-0.921
		C20.476,0.081,19.481,0,18.243,0H6.92C5.681,0,4.686,0.081,3.879,0.32C3.121,0.545,2.569,0.885,2.107,1.241
		c-0.8,0.616-1.365,1.491-1.609,2.112C0.005,4.605,0,6.025,0,6.92v11.323c0,0.894,0.005,2.315,0.498,3.567
		c0.245,0.621,0.809,1.496,1.609,2.112c0.462,0.356,1.014,0.696,1.772,0.921c0.808,0.239,1.803,0.32,3.041,0.32h11.323
		c1.238,0,2.233-0.081,3.041-0.32c0.758-0.225,1.309-0.565,1.772-0.921c0.8-0.616,1.365-1.491,1.609-2.112
		c0.493-1.252,0.498-2.672,0.498-3.567V6.92C25.163,6.025,25.158,4.605,24.665,3.353z M18.356,17.307
		c-0.065,0.31-0.184,0.601-0.367,0.863c-0.182,0.262-0.416,0.476-0.688,0.637c-0.276,0.163-0.565,0.256-0.874,0.318
		c-0.58,0.117-0.977,0.143-1.349,0.068c-0.36-0.072-0.664-0.238-0.908-0.461c-0.361-0.331-0.586-0.778-0.635-1.246
		c-0.058-0.548,0.125-1.133,0.536-1.564c0.208-0.217,0.468-0.39,0.816-0.525c0.364-0.141,0.766-0.226,1.384-0.35
		c0.163-0.033,0.325-0.066,0.488-0.098c0.214-0.043,0.398-0.098,0.546-0.279c0.149-0.182,0.152-0.401,0.152-0.62l0-5.545
		c0-0.424-0.19-0.54-0.595-0.462c-0.289,0.056-6.506,1.31-6.506,1.31c-0.351,0.085-0.474,0.199-0.474,0.634l0,8.125
		c0,0.319-0.017,0.601-0.084,0.92c-0.065,0.31-0.184,0.601-0.367,0.863c-0.182,0.262-0.416,0.476-0.688,0.637
		c-0.276,0.163-0.565,0.26-0.874,0.322c-0.58,0.117-0.977,0.143-1.349,0.068c-0.36-0.072-0.664-0.242-0.908-0.466
		c-0.361-0.331-0.571-0.778-0.621-1.246c-0.058-0.548,0.11-1.133,0.521-1.564c0.208-0.218,0.468-0.39,0.816-0.525
		c0.364-0.141,0.766-0.226,1.384-0.35c0.163-0.033,0.326-0.066,0.488-0.098c0.214-0.043,0.398-0.098,0.546-0.279
		c0.148-0.181,0.165-0.398,0.165-0.616c0-1.719,0-9.357,0-9.357c0-0.126,0.011-0.21,0.017-0.252c0.03-0.197,0.109-0.366,0.252-0.486
		c0.118-0.1,0.271-0.168,0.466-0.21L9.65,5.474l7.479-1.509c0.065-0.013,0.605-0.109,0.666-0.114
		c0.404-0.035,0.631,0.231,0.631,0.661l0,11.87C18.426,16.701,18.423,16.987,18.356,17.307z"/>
	<g>
		<path d="M34.303,5.93h-2.309l-0.558,1.607h-0.965l2.186-6.056h1.012l2.186,6.056h-0.998L34.303,5.93z M32.233,5.141h1.83
			l-0.877-2.56h-0.071L32.233,5.141z"/>
		<path d="M38.492,2.879c1.027,0,1.699,0.479,1.787,1.284h-0.864c-0.084-0.336-0.411-0.55-0.923-0.55
			c-0.504,0-0.886,0.239-0.886,0.596c0,0.273,0.23,0.445,0.726,0.559l0.76,0.176c0.869,0.202,1.275,0.575,1.275,1.246
			c0,0.86-0.801,1.436-1.892,1.436c-1.087,0-1.797-0.491-1.876-1.301h0.902c0.113,0.353,0.448,0.57,0.994,0.57
			c0.562,0,0.961-0.251,0.961-0.616c0-0.273-0.214-0.449-0.672-0.559l-0.797-0.185C37.12,5.33,36.717,4.94,36.717,4.26
			C36.717,3.451,37.46,2.879,38.492,2.879z"/>
		<path d="M43.161,2.879c1.028,0,1.699,0.479,1.788,1.284h-0.864c-0.084-0.336-0.412-0.55-0.924-0.55
			c-0.503,0-0.885,0.239-0.885,0.596c0,0.273,0.23,0.445,0.726,0.559l0.76,0.176c0.868,0.202,1.275,0.575,1.275,1.246
			c0,0.86-0.802,1.436-1.893,1.436c-1.087,0-1.796-0.491-1.876-1.301h0.902c0.113,0.353,0.449,0.57,0.995,0.57
			c0.562,0,0.96-0.251,0.96-0.616c0-0.273-0.214-0.449-0.671-0.559l-0.797-0.185C41.789,5.33,41.387,4.94,41.387,4.26
			C41.387,3.451,42.129,2.879,43.161,2.879z"/>
		<path d="M46.128,1.617c0-0.314,0.247-0.554,0.583-0.554s0.583,0.239,0.583,0.554c0,0.311-0.247,0.55-0.583,0.55
			S46.128,1.927,46.128,1.617z M46.262,2.967h0.898v4.57h-0.898V2.967z"/>
		<path d="M50.281,2.879c1.027,0,1.699,0.479,1.787,1.284h-0.864c-0.084-0.336-0.411-0.55-0.923-0.55
			c-0.504,0-0.886,0.239-0.886,0.596c0,0.273,0.23,0.445,0.726,0.559l0.76,0.176c0.869,0.202,1.275,0.575,1.275,1.246
			c0,0.86-0.801,1.436-1.892,1.436c-1.087,0-1.797-0.491-1.876-1.301h0.902c0.113,0.353,0.448,0.57,0.994,0.57
			c0.562,0,0.961-0.251,0.961-0.616c0-0.273-0.214-0.449-0.672-0.559l-0.797-0.185C48.909,5.33,48.506,4.94,48.506,4.26
			C48.506,3.451,49.249,2.879,50.281,2.879z"/>
		<path d="M54.553,1.83v1.158h0.99v0.76h-0.99v2.35c0,0.479,0.197,0.688,0.646,0.688c0.138,0,0.218-0.009,0.344-0.021v0.751
			c-0.146,0.025-0.314,0.047-0.491,0.047c-1.003,0-1.401-0.353-1.401-1.234v-2.58h-0.726v-0.76h0.726V1.83H54.553z"/>
		<path d="M56.468,6.245c0-0.822,0.612-1.296,1.699-1.363l1.237-0.071V4.415c0-0.482-0.318-0.756-0.936-0.756
			c-0.503,0-0.852,0.186-0.952,0.508h-0.873c0.093-0.784,0.831-1.288,1.867-1.288c1.146,0,1.792,0.571,1.792,1.536v3.122h-0.868
			V6.895h-0.072c-0.272,0.458-0.771,0.718-1.372,0.718C57.109,7.613,56.468,7.079,56.468,6.245z M59.404,5.855V5.473l-1.116,0.071
			c-0.629,0.042-0.914,0.256-0.914,0.658c0,0.411,0.356,0.65,0.848,0.65C58.901,6.853,59.404,6.421,59.404,5.855z"/>
		<path d="M64.183,2.967h0.868v0.727h0.067c0.222-0.508,0.676-0.814,1.363-0.814c1.02,0,1.582,0.613,1.582,1.699v2.959h-0.902V4.805
			c0-0.733-0.318-1.099-0.985-1.099c-0.668,0-1.092,0.444-1.092,1.158v2.673h-0.901V2.967z"/>
		<path d="M69.225,5.25c0-1.473,0.822-2.371,2.157-2.371c1.33,0,2.152,0.898,2.152,2.371c0,1.481-0.818,2.375-2.152,2.375
			C70.044,7.625,69.225,6.732,69.225,5.25z M72.607,5.25c0-0.99-0.444-1.569-1.225-1.569c-0.785,0-1.226,0.579-1.226,1.569
			c0,0.999,0.44,1.573,1.226,1.573C72.163,6.824,72.607,6.245,72.607,5.25z"/>
	</g>
	<g>
		<path d="M38.186,20.422h-4.733l-1.137,3.356h-2.005l4.483-12.419h2.083l4.483,12.419h-2.039L38.186,20.422z M33.943,18.873h3.752
			l-1.85-5.448h-0.052L33.943,18.873z"/>
		<path d="M51.044,19.252c0,2.813-1.506,4.621-3.778,4.621c-1.29,0-2.314-0.577-2.849-1.584h-0.043v4.484h-1.858V14.725h1.799v1.506
			h0.034c0.517-0.972,1.618-1.601,2.883-1.601C49.529,14.63,51.044,16.447,51.044,19.252z M49.134,19.252
			c0-1.833-0.947-3.038-2.393-3.038c-1.42,0-2.375,1.23-2.375,3.038c0,1.824,0.955,3.046,2.375,3.046
			C48.186,22.298,49.134,21.102,49.134,19.252z"/>
		<path d="M61.009,19.252c0,2.813-1.506,4.621-3.778,4.621c-1.29,0-2.314-0.577-2.849-1.584h-0.043v4.484H52.48V14.725h1.799v1.506
			h0.034c0.517-0.972,1.618-1.601,2.883-1.601C59.494,14.63,61.009,16.447,61.009,19.252z M59.098,19.252
			c0-1.833-0.947-3.038-2.393-3.038c-1.42,0-2.375,1.23-2.375,3.038c0,1.824,0.955,3.046,2.375,3.046
			C58.151,22.298,59.098,21.102,59.098,19.252z"/>
		<path d="M62.513,11.36h1.859v12.419h-1.859V11.36z"/>
		<path d="M74.049,21.12c-0.25,1.644-1.851,2.771-3.898,2.771c-2.634,0-4.269-1.765-4.269-4.596c0-2.84,1.644-4.682,4.19-4.682
			c2.505,0,4.08,1.721,4.08,4.466v0.637h-6.395v0.112c0,1.549,0.973,2.564,2.436,2.564c1.032,0,1.842-0.49,2.091-1.273H74.049z
			 M67.766,18.417h4.526c-0.043-1.386-0.93-2.298-2.221-2.298C68.79,16.12,67.861,17.049,67.766,18.417z"/>
		<path d="M90.195,23.779v-9.14h-0.061l-3.743,9.045h-1.429l-3.753-9.045h-0.06v9.14h-1.756V11.36h2.229l4.019,9.803h0.068
			l4.011-9.803h2.237v12.419H90.195z"/>
		<path d="M101.869,23.779h-1.781v-1.558h-0.043c-0.517,1.084-1.421,1.661-2.806,1.661c-1.971,0-3.176-1.273-3.176-3.348v-5.81
			h1.858v5.448c0,1.377,0.654,2.108,1.937,2.108c1.343,0,2.151-0.93,2.151-2.341v-5.216h1.859V23.779z"/>
		<path d="M107.163,14.622c2.006,0,3.442,1.109,3.485,2.71h-1.747c-0.077-0.8-0.757-1.29-1.79-1.29c-1.007,0-1.678,0.464-1.678,1.17
			c0,0.542,0.447,0.903,1.386,1.136l1.523,0.354c1.824,0.438,2.513,1.109,2.513,2.436c0,1.635-1.549,2.754-3.761,2.754
			c-2.135,0-3.571-1.094-3.709-2.746h1.841c0.13,0.869,0.826,1.334,1.954,1.334c1.11,0,1.807-0.456,1.807-1.179
			c0-0.56-0.344-0.86-1.29-1.102l-1.618-0.396c-1.635-0.396-2.461-1.231-2.461-2.487C103.618,15.715,105.055,14.622,107.163,14.622z
			"/>
		<path d="M112.309,12.341c0-0.594,0.481-1.067,1.075-1.067c0.603,0,1.085,0.474,1.085,1.067c0,0.585-0.482,1.059-1.085,1.059
			C112.791,13.4,112.309,12.926,112.309,12.341z M112.456,14.725h1.858v9.054h-1.858V14.725z"/>
		<path d="M122.323,17.84c-0.163-0.955-0.912-1.669-2.134-1.669c-1.429,0-2.376,1.196-2.376,3.081c0,1.928,0.956,3.089,2.393,3.089
			c1.153,0,1.911-0.576,2.117-1.626h1.79c-0.206,1.901-1.729,3.176-3.924,3.176c-2.582,0-4.269-1.765-4.269-4.639
			c0-2.814,1.687-4.639,4.251-4.639c2.323,0,3.77,1.463,3.925,3.227H122.323z"/>
	</g>
</g>
<g>
</g>
<g>
</g>
<g>
</g>
<g>
</g>
<g>
</g>
<g>
</g>
<g>
</g>
<g>
</g>
<g>
</g>
<g>
</g>
<g>
</g>
<g>
</g>
<g>
</g>
<g>
</g>
<g>
</g>
</svg>
