<?xml version="1.0" encoding="utf-8"?>
<!-- Generator: Adobe Illustrator 24.3.0, SVG Export Plug-In . SVG Version: 6.00 Build 0)  -->
<svg version="1.1" id="PTBR" xmlns="http://www.w3.org/2000/svg" xmlns:xlink="http://www.w3.org/1999/xlink" x="0px" y="0px"
	 width="124.119px" height="26.777px" viewBox="0 0 124.119 26.777" enable-background="new 0 0 124.119 26.777"
	 xml:space="preserve">
<g>
	<g>
		<path d="M38.192,20.426h-4.733l-1.137,3.356h-2.005L34.8,11.363h2.083l4.483,12.419h-2.039L38.192,20.426z M33.949,18.877h3.752
			l-1.85-5.448h-0.052L33.949,18.877z"/>
		<path d="M51.049,19.256c0,2.865-1.506,4.682-3.778,4.682c-1.299,0-2.332-0.638-2.849-1.645H44.38v4.484h-1.858V14.729h1.799v1.558
			h0.034c0.533-1.041,1.575-1.704,2.883-1.704C49.535,14.582,51.049,16.39,51.049,19.256z M49.139,19.256
			c0-1.894-0.921-3.107-2.393-3.107c-1.42,0-2.375,1.239-2.375,3.107c0,1.885,0.946,3.106,2.375,3.106
			C48.218,22.362,49.139,21.157,49.139,19.256z"/>
		<path d="M61.014,19.256c0,2.865-1.506,4.682-3.778,4.682c-1.299,0-2.332-0.638-2.849-1.645h-0.043v4.484h-1.858V14.729h1.799
			v1.558h0.034c0.533-1.041,1.575-1.704,2.883-1.704C59.5,14.582,61.014,16.39,61.014,19.256z M59.104,19.256
			c0-1.894-0.921-3.107-2.393-3.107c-1.42,0-2.375,1.239-2.375,3.107c0,1.885,0.946,3.106,2.375,3.106
			C58.183,22.362,59.104,21.157,59.104,19.256z"/>
		<path d="M62.519,11.363h1.859v12.419h-1.859V11.363z"/>
		<path d="M74.054,21.123c-0.259,1.652-1.824,2.831-3.898,2.831c-2.659,0-4.269-1.799-4.269-4.655c0-2.84,1.635-4.733,4.19-4.733
			c2.514,0,4.08,1.772,4.08,4.518v0.637h-6.395v0.112c0,1.575,0.946,2.616,2.436,2.616c1.059,0,1.842-0.533,2.091-1.325H74.054z
			 M67.772,18.421h4.526c-0.043-1.386-0.921-2.358-2.221-2.358C68.779,16.063,67.867,17.053,67.772,18.421z"/>
		<path d="M90.201,23.782v-9.14H90.14l-3.743,9.14h-1.429l-3.753-9.14h-0.06v9.14H79.4V11.363h2.229l4.019,9.897h0.068l4.011-9.897
			h2.237v12.419H90.201z"/>
		<path d="M101.875,23.782h-1.781V22.25h-0.043c-0.5,1.085-1.421,1.695-2.806,1.695c-1.971,0-3.176-1.282-3.176-3.355v-5.861h1.858
			v5.499c0,1.377,0.654,2.117,1.937,2.117c1.343,0,2.151-0.929,2.151-2.341v-5.275h1.859V23.782z"/>
		<path d="M107.117,14.566c2.108,0,3.478,1.17,3.537,2.84h-1.747c-0.103-0.878-0.748-1.429-1.79-1.429
			c-1.007,0-1.678,0.49-1.678,1.214c0,0.567,0.413,0.955,1.395,1.179l1.472,0.336c1.85,0.43,2.556,1.153,2.556,2.461
			c0,1.652-1.541,2.788-3.675,2.788c-2.264,0-3.623-1.11-3.795-2.831h1.841c0.173,0.946,0.818,1.411,1.954,1.411
			c1.119,0,1.807-0.465,1.807-1.205c0-0.585-0.335-0.929-1.325-1.152l-1.472-0.345c-1.721-0.396-2.572-1.222-2.572-2.539
			C103.624,15.676,105.035,14.566,107.117,14.566z"/>
		<path d="M112.315,12.198c0-0.594,0.481-1.067,1.075-1.067s1.067,0.474,1.067,1.067c0,0.585-0.474,1.067-1.067,1.067
			S112.315,12.783,112.315,12.198z M112.462,14.729h1.858v9.054h-1.858V14.729z"/>
		<path d="M122.329,17.844c-0.189-0.964-0.912-1.729-2.125-1.729c-1.438,0-2.385,1.196-2.385,3.142c0,1.987,0.956,3.141,2.401,3.141
			c1.145,0,1.894-0.628,2.108-1.678h1.79c-0.197,1.928-1.738,3.235-3.915,3.235c-2.591,0-4.277-1.772-4.277-4.698
			c0-2.875,1.687-4.69,4.26-4.69c2.332,0,3.752,1.497,3.916,3.278H122.329z"/>
	</g>
	<g>
		<g id="Artwork_93_">
		</g>
		<path id="XMLID_886_" d="M24.665,3.353c-0.245-0.621-0.809-1.496-1.609-2.112c-0.462-0.356-1.014-0.696-1.772-0.921
			C20.476,0.081,19.481,0,18.243,0H6.92C5.681,0,4.686,0.081,3.879,0.32C3.121,0.545,2.569,0.885,2.107,1.241
			c-0.8,0.616-1.365,1.491-1.609,2.112C0.005,4.605,0,6.025,0,6.92v11.323c0,0.894,0.005,2.315,0.498,3.567
			c0.245,0.621,0.809,1.496,1.609,2.112c0.462,0.356,1.014,0.696,1.772,0.921c0.808,0.239,1.803,0.32,3.041,0.32h11.323
			c1.238,0,2.233-0.081,3.041-0.32c0.758-0.225,1.309-0.565,1.772-0.921c0.8-0.616,1.365-1.491,1.609-2.112
			c0.493-1.252,0.498-2.672,0.498-3.567V6.92C25.163,6.025,25.158,4.605,24.665,3.353z M18.356,17.307
			c-0.065,0.31-0.184,0.601-0.367,0.863c-0.182,0.262-0.416,0.476-0.688,0.637c-0.276,0.163-0.565,0.256-0.874,0.318
			c-0.58,0.117-0.977,0.143-1.349,0.068c-0.36-0.072-0.664-0.238-0.908-0.461c-0.361-0.331-0.586-0.778-0.635-1.246
			c-0.058-0.548,0.125-1.133,0.536-1.564c0.208-0.217,0.468-0.39,0.816-0.525c0.364-0.141,0.766-0.226,1.384-0.35
			c0.163-0.033,0.325-0.066,0.488-0.098c0.214-0.043,0.398-0.098,0.546-0.279c0.149-0.182,0.152-0.401,0.152-0.62l0-5.545
			c0-0.424-0.19-0.54-0.595-0.462c-0.289,0.056-6.506,1.31-6.506,1.31c-0.351,0.085-0.474,0.199-0.474,0.634l0,8.125
			c0,0.319-0.017,0.601-0.084,0.92c-0.065,0.31-0.184,0.601-0.367,0.863c-0.182,0.262-0.416,0.476-0.688,0.637
			c-0.276,0.163-0.565,0.26-0.874,0.322c-0.58,0.117-0.977,0.143-1.349,0.068c-0.36-0.072-0.664-0.242-0.908-0.466
			c-0.361-0.331-0.571-0.778-0.621-1.246c-0.058-0.548,0.11-1.133,0.521-1.564c0.208-0.218,0.468-0.39,0.816-0.525
			c0.364-0.141,0.766-0.226,1.384-0.35c0.163-0.033,0.326-0.066,0.488-0.098c0.214-0.043,0.398-0.098,0.546-0.279
			c0.148-0.181,0.165-0.398,0.165-0.616c0-1.719,0-9.357,0-9.357c0-0.126,0.011-0.21,0.017-0.252
			c0.03-0.197,0.109-0.366,0.252-0.486c0.118-0.1,0.271-0.168,0.466-0.21L9.65,5.474l7.479-1.509
			c0.065-0.013,0.605-0.109,0.666-0.114c0.404-0.035,0.631,0.231,0.631,0.661l0,11.87C18.426,16.701,18.423,16.987,18.356,17.307z"
			/>
	</g>
	<g>
		<g>
			<path d="M33.313,1.486c1.183,0,1.997,0.818,1.997,2.019c0,1.184-0.839,1.997-2.026,1.997h-1.402v2.04h-0.939V1.486H33.313z
				 M31.881,4.675h1.184c0.811,0,1.284-0.42,1.284-1.171c0-0.768-0.457-1.188-1.284-1.188h-1.184V4.675z"/>
			<path d="M36.534,2.971h0.869v0.701h0.066c0.13-0.449,0.638-0.776,1.234-0.776c0.134,0,0.306,0.013,0.402,0.038v0.89
				c-0.075-0.025-0.344-0.055-0.504-0.055c-0.684,0-1.166,0.432-1.166,1.074v2.698h-0.902V2.971z"/>
			<path d="M43.845,6.307c-0.197,0.814-0.936,1.322-1.98,1.322c-1.31,0-2.11-0.898-2.11-2.358s0.817-2.388,2.106-2.388
				c1.271,0,2.039,0.869,2.039,2.304v0.314h-3.227v0.051c0.029,0.802,0.495,1.31,1.217,1.31c0.545,0,0.919-0.197,1.087-0.555H43.845
				z M40.673,4.834h2.308c-0.021-0.717-0.458-1.183-1.125-1.183S40.723,4.121,40.673,4.834z M41.512,2.346l0.726-1.451h0.974
				l-0.978,1.451H41.512z"/>
			<path d="M45.12,5.543V4.658h2.753v0.885H45.12z"/>
			<path d="M49.056,6.248c0-0.822,0.612-1.296,1.699-1.363l1.237-0.071V4.419c0-0.482-0.318-0.756-0.936-0.756
				c-0.503,0-0.852,0.186-0.952,0.508h-0.873c0.093-0.784,0.831-1.288,1.867-1.288c1.146,0,1.792,0.571,1.792,1.536v3.122h-0.868
				V6.899h-0.071c-0.273,0.458-0.772,0.718-1.373,0.718C49.698,7.616,49.056,7.083,49.056,6.248z M51.993,5.859V5.477l-1.115,0.071
				c-0.63,0.042-0.915,0.256-0.915,0.658c0,0.411,0.356,0.65,0.848,0.65C51.49,6.857,51.993,6.425,51.993,5.859z"/>
			<path d="M54.07,5.254c0-1.443,0.743-2.358,1.896-2.358c0.625,0,1.154,0.298,1.401,0.802h0.067v-2.51h0.902v6.354h-0.864V6.819
				h-0.071c-0.273,0.499-0.806,0.797-1.436,0.797C54.804,7.616,54.07,6.701,54.07,5.254z M55.002,5.254
				c0,0.97,0.457,1.553,1.221,1.553c0.76,0,1.229-0.592,1.229-1.549c0-0.952-0.474-1.553-1.229-1.553
				C55.464,3.705,55.002,4.293,55.002,5.254z"/>
			<path d="M59.704,1.591c0-0.327,0.256-0.592,0.57-0.592s0.57,0.265,0.57,0.592c0,0.323-0.256,0.587-0.57,0.587
				S59.704,1.914,59.704,1.591z M59.825,2.971h0.898v4.57h-0.898V2.971z"/>
			<path d="M65.167,4.465c-0.105-0.444-0.475-0.776-1.079-0.776c-0.755,0-1.217,0.579-1.217,1.553c0,0.99,0.466,1.582,1.217,1.582
				c0.571,0,0.961-0.26,1.079-0.751h0.877c-0.118,0.919-0.822,1.557-1.951,1.557c-1.33,0-2.145-0.898-2.145-2.388
				c0-1.465,0.81-2.358,2.14-2.358c1.146,0,1.838,0.667,1.956,1.582H65.167z"/>
			<path d="M67.088,1.591c0-0.327,0.256-0.592,0.571-0.592c0.314,0,0.57,0.265,0.57,0.592c0,0.323-0.256,0.587-0.57,0.587
				C67.343,2.178,67.088,1.914,67.088,1.591z M67.21,2.971h0.897v4.57H67.21V2.971z"/>
			<path d="M69.332,5.254c0-1.473,0.822-2.371,2.157-2.371c1.33,0,2.152,0.898,2.152,2.371c0,1.481-0.818,2.375-2.152,2.375
				C70.15,7.629,69.332,6.736,69.332,5.254z M72.714,5.254c0-0.99-0.444-1.569-1.225-1.569c-0.785,0-1.226,0.579-1.226,1.569
				c0,0.999,0.44,1.573,1.226,1.573C72.269,6.827,72.714,6.248,72.714,5.254z"/>
			<path d="M74.844,2.971h0.869v0.727h0.067c0.222-0.508,0.675-0.814,1.363-0.814c1.02,0,1.582,0.613,1.582,1.699v2.959h-0.902
				V4.809c0-0.733-0.318-1.099-0.986-1.099c-0.667,0-1.091,0.444-1.091,1.158v2.673h-0.902V2.971z"/>
			<path d="M83.979,6.307c-0.197,0.814-0.936,1.322-1.98,1.322c-1.31,0-2.111-0.898-2.111-2.358s0.818-2.388,2.106-2.388
				c1.271,0,2.04,0.869,2.04,2.304v0.314h-3.228v0.051c0.029,0.802,0.495,1.31,1.217,1.31c0.546,0,0.919-0.197,1.087-0.555H83.979z
				 M80.806,4.834h2.309c-0.021-0.717-0.458-1.183-1.125-1.183S80.857,4.121,80.806,4.834z"/>
			<path d="M87.711,2.971h0.869v0.727h0.067c0.222-0.508,0.675-0.814,1.363-0.814c1.02,0,1.582,0.613,1.582,1.699v2.959H90.69V4.809
				c0-0.733-0.318-1.099-0.986-1.099c-0.667,0-1.091,0.444-1.091,1.158v2.673h-0.902V2.971z"/>
			<path d="M92.754,5.254c0-1.473,0.822-2.371,2.157-2.371c1.33,0,2.152,0.898,2.152,2.371c0,1.481-0.818,2.375-2.152,2.375
				C93.572,7.629,92.754,6.736,92.754,5.254z M96.136,5.254c0-0.99-0.445-1.569-1.226-1.569c-0.785,0-1.226,0.579-1.226,1.569
				c0,0.999,0.44,1.573,1.226,1.573C95.691,6.827,96.136,6.248,96.136,5.254z"/>
		</g>
	</g>
</g>
<g>
</g>
<g>
</g>
<g>
</g>
<g>
</g>
<g>
</g>
<g>
</g>
<g>
</g>
<g>
</g>
<g>
</g>
<g>
</g>
<g>
</g>
<g>
</g>
<g>
</g>
<g>
</g>
<g>
</g>
</svg>
